<svg width="40" height="25" viewBox="0 0 40 25" fill="none" xmlns="http://www.w3.org/2000/svg">
<path d="M36.6663 3.3333H24.9997V0H36.6663V3.3333ZM39.5429 19.9998C38.8062 22.1614 36.1613 24.9997 31.0413 24.9997C25.9181 24.9997 21.7681 22.1181 21.7681 15.5415C21.7681 9.0249 25.6431 5.67494 30.878 5.67494C36.0146 5.67494 39.1512 8.64491 39.8362 13.0515C39.9662 13.8948 40.0179 15.0315 39.9946 16.6182H26.6164C26.833 21.9698 32.4213 22.1381 34.263 19.9998H39.5429ZM26.733 13.3332H35.008C34.833 10.7549 33.1146 9.6349 30.8797 9.6349C28.4364 9.6349 27.0847 10.9149 26.733 13.3332ZM10.7766 24.9797H0V0.0349995H11.5882C20.7148 0.169998 20.8881 9.10823 16.1215 11.5449C21.8898 13.6449 22.0831 24.9797 10.7766 24.9797ZM4.99995 9.99989H10.9732C15.1532 9.99989 15.8165 4.99995 10.4532 4.99995H4.99995V9.99989ZM10.6516 14.9998H4.99995V20.0265H10.5682C15.6598 20.0265 15.3482 14.9998 10.6516 14.9998Z" fill="#A583C0"/>
</svg>
