<svg width="40" height="30" viewBox="0 0 40 30" fill="none" xmlns="http://www.w3.org/2000/svg">
<path d="M40 4.09922V27.2809C40 28.7875 38.78 30.0076 37.2733 30.0076H30.9083V14.5542L20 22.7376L9.09167 14.5542V30.0092H2.72667C2.36846 30.0092 2.01376 29.9386 1.68283 29.8015C1.35191 29.6644 1.05125 29.4634 0.798033 29.21C0.544817 28.9566 0.344007 28.6559 0.207077 28.3248C0.0701473 27.9938 -0.000218446 27.6391 5.09419e-07 27.2809V4.09922C5.09419e-07 0.727551 3.84833 -1.19745 6.545 0.825885L9.09167 2.73755L20 10.9176L30.9083 2.73422L33.455 0.825885C36.15 -1.19578 40 0.727551 40 4.09922Z" fill="#A583C0"/>
</svg>
