<?xml version="1.0" encoding="utf-8"?>
<!-- Generator: Adobe Illustrator 27.3.1, SVG Export Plug-In . SVG Version: 6.00 Build 0)  -->
<svg version="1.1" id="Layer_1" xmlns="http://www.w3.org/2000/svg" xmlns:xlink="http://www.w3.org/1999/xlink" x="0px" y="0px"
	 viewBox="0 0 497.3 288" style="enable-background:new 0 0 497.3 288;" xml:space="preserve">
<style type="text/css">
	.st0{fill:#A583C0;}
	.st1{fill:none;stroke:#A583C0;stroke-width:2;}
	.st2{fill:#D1BAE7;}
	.st3{fill:#8241A1;}
	.st4{fill:none;stroke:#8241A1;stroke-width:2;}
</style>
<path class="st0" d="M330.6,114.8l1.1-1.1l7.7,7.7l-1.1,1.1l-3.2-3.2l-9.2,9.2l-1.2-1.2l9.2-9.2L330.6,114.8z M330.9,133.5l7.7-7.7
	l1.2,1.2l-7.7,7.7L330.9,133.5z M340.5,125.1c-0.2-0.2-0.4-0.5-0.4-0.8c0-0.3,0.1-0.6,0.3-0.8c0.2-0.2,0.5-0.3,0.8-0.3
	c0.3,0,0.6,0.1,0.8,0.4c0.2,0.2,0.4,0.5,0.4,0.8c0,0.3-0.1,0.6-0.3,0.8c-0.2,0.2-0.5,0.3-0.8,0.3C341,125.4,340.8,125.3,340.5,125.1
	z M334.3,136.8l7.7-7.7l1.1,1.1l-1.2,1.2l0.1,0.1c0.6-0.3,1.2-0.3,1.7-0.2c0.6,0.1,1.1,0.4,1.6,0.9c0.5,0.5,0.8,1,0.9,1.6
	c0.1,0.6,0.1,1.2-0.2,1.8l0.1,0.1c0.6-0.2,1.2-0.2,1.8-0.1c0.6,0.2,1.2,0.5,1.8,1.1c0.7,0.7,1,1.5,1,2.3c0,0.9-0.4,1.8-1.3,2.7
	l-5.2,5.2l-1.2-1.2l5.2-5.2c0.6-0.6,0.8-1.1,0.8-1.7c-0.1-0.6-0.3-1-0.7-1.5c-0.5-0.5-1.1-0.8-1.8-0.8c-0.6,0-1.2,0.3-1.7,0.8l-5,5
	l-1.2-1.2l5.3-5.3c0.4-0.4,0.6-0.9,0.6-1.5c0-0.6-0.2-1.1-0.7-1.5c-0.3-0.3-0.7-0.5-1.1-0.6c-0.4-0.1-0.9-0.1-1.3,0
	c-0.4,0.1-0.9,0.4-1.2,0.8l-4.8,4.8L334.3,136.8z M349.6,152.5c-0.7-0.7-1.2-1.5-1.4-2.4c-0.2-0.9-0.2-1.7,0.1-2.6
	c0.3-0.9,0.9-1.7,1.6-2.5c0.8-0.8,1.6-1.3,2.5-1.7c0.9-0.3,1.8-0.4,2.6-0.2c0.9,0.2,1.6,0.6,2.3,1.3c0.4,0.4,0.7,0.9,1,1.4
	c0.3,0.5,0.4,1.1,0.4,1.7c0,0.6-0.1,1.3-0.4,2s-0.8,1.4-1.5,2.1l-0.5,0.5l-5.9-5.9l1-1l4.7,4.7c0.4-0.4,0.7-0.9,0.9-1.4
	c0.2-0.5,0.2-1,0.1-1.5c-0.1-0.5-0.4-1-0.8-1.4c-0.5-0.5-1-0.8-1.6-0.9c-0.6-0.1-1.1-0.1-1.7,0.1c-0.6,0.2-1,0.5-1.5,0.9l-0.7,0.7
	c-0.6,0.6-1,1.2-1.2,1.8c-0.2,0.6-0.2,1.2-0.1,1.8c0.2,0.6,0.5,1.1,0.9,1.6c0.3,0.3,0.6,0.5,1,0.7c0.3,0.2,0.7,0.2,1.1,0.3
	c0.4,0,0.7-0.1,1.1-0.2l0.8,1.5c-0.5,0.3-1.1,0.4-1.6,0.4c-0.6,0-1.2-0.1-1.7-0.4C350.7,153.4,350.2,153,349.6,152.5z M369.2,151.2
	l1.5,1.5l-5,12l0.1,0.1l12-5l1.5,1.5L369,171.6l-1.2-1.2l7.8-7.8l-0.1-0.1l-11,4.6l-1.1-1.1l4.6-11l-0.1-0.1l-7.8,7.8l-1.2-1.2
	L369.2,151.2z M373.4,176.4c-0.5-0.5-0.8-1-1.1-1.6c-0.2-0.6-0.3-1.2-0.1-1.8c0.1-0.6,0.4-1.1,0.9-1.6c0.4-0.4,0.9-0.7,1.3-0.8
	c0.5-0.1,0.9-0.1,1.4,0c0.4,0.1,0.9,0.3,1.3,0.6c0.4,0.3,0.9,0.6,1.3,0.9c0.5,0.4,1,0.7,1.3,1c0.3,0.3,0.6,0.4,0.8,0.5
	c0.2,0.1,0.4,0,0.6-0.2l0,0c0.5-0.5,0.7-1,0.7-1.6c0-0.5-0.3-1.1-0.8-1.6c-0.6-0.6-1.1-0.9-1.7-1c-0.6-0.1-1.1,0-1.5,0.1l-0.7-1.5
	c0.7-0.3,1.3-0.4,1.9-0.3c0.6,0.1,1.2,0.3,1.7,0.6c0.5,0.3,1,0.6,1.3,1c0.2,0.2,0.5,0.6,0.8,0.9c0.3,0.4,0.5,0.8,0.6,1.3
	c0.1,0.5,0.1,1-0.1,1.6c-0.2,0.6-0.6,1.2-1.2,1.8l-5.1,5.1l-1.2-1.2l1-1l-0.1-0.1c-0.2,0.1-0.6,0.1-0.9,0.1c-0.4,0-0.8-0.1-1.2-0.3
	C374.3,177.1,373.9,176.8,373.4,176.4z M374.7,175.5c0.5,0.5,1,0.8,1.5,0.9c0.5,0.1,1,0.1,1.4,0c0.5-0.1,0.8-0.3,1.2-0.7l1.1-1.1
	c-0.1,0-0.3,0-0.5-0.2c-0.2-0.1-0.5-0.3-0.7-0.5c-0.3-0.2-0.5-0.4-0.7-0.5c-0.2-0.2-0.4-0.3-0.6-0.4c-0.3-0.3-0.7-0.5-1.1-0.7
	c-0.4-0.2-0.7-0.3-1-0.2c-0.3,0-0.7,0.2-1,0.5c-0.4,0.4-0.6,0.9-0.5,1.4C373.9,174.5,374.2,175,374.7,175.5z M385.2,178.4l-4.6,4.6
	l-1.2-1.2l7.7-7.7l1.1,1.1l-1.2,1.2l0.1,0.1c0.6-0.2,1.2-0.3,1.8-0.1c0.6,0.1,1.2,0.5,1.8,1.1c0.5,0.5,0.9,1.1,1,1.7
	c0.2,0.6,0.2,1.2,0,1.9c-0.2,0.6-0.6,1.3-1.3,2l-4.9,4.9l-1.2-1.2l4.8-4.8c0.6-0.6,0.9-1.2,0.9-1.9c0-0.7-0.2-1.3-0.8-1.8
	c-0.4-0.4-0.8-0.6-1.3-0.8c-0.5-0.1-0.9-0.1-1.4,0C386.1,177.7,385.6,178,385.2,178.4z M389.7,192.6c-0.5-0.5-0.8-1-1.1-1.6
	c-0.2-0.6-0.3-1.2-0.1-1.8c0.1-0.6,0.4-1.1,0.9-1.6c0.4-0.4,0.9-0.7,1.3-0.8c0.5-0.1,0.9-0.1,1.4,0s0.9,0.3,1.3,0.6
	c0.4,0.3,0.9,0.6,1.3,0.9c0.5,0.4,1,0.7,1.3,1c0.3,0.3,0.6,0.4,0.8,0.5c0.2,0.1,0.4,0,0.6-0.2l0,0c0.5-0.5,0.7-1,0.7-1.6
	c0-0.5-0.3-1.1-0.8-1.6c-0.6-0.6-1.1-0.9-1.7-1c-0.6-0.1-1.1,0-1.5,0.1l-0.7-1.5c0.7-0.3,1.3-0.4,1.9-0.3c0.6,0.1,1.2,0.3,1.7,0.6
	c0.5,0.3,1,0.6,1.3,1c0.2,0.2,0.5,0.6,0.8,0.9c0.3,0.4,0.5,0.8,0.6,1.3c0.1,0.5,0.1,1-0.1,1.6c-0.2,0.6-0.6,1.2-1.2,1.8l-5.1,5.1
	l-1.2-1.2l1-1l-0.1-0.1c-0.2,0.1-0.6,0.1-0.9,0.1c-0.4,0-0.8-0.1-1.2-0.3C390.6,193.4,390.1,193.1,389.7,192.6z M390.9,191.7
	c0.5,0.5,1,0.8,1.5,0.9c0.5,0.1,1,0.1,1.4,0c0.5-0.1,0.8-0.3,1.2-0.7l1.1-1.1c-0.1,0-0.3,0-0.5-0.2c-0.2-0.1-0.5-0.3-0.7-0.5
	c-0.3-0.2-0.5-0.4-0.7-0.5c-0.2-0.2-0.4-0.3-0.6-0.4c-0.3-0.3-0.7-0.5-1.1-0.7c-0.4-0.2-0.7-0.3-1-0.2c-0.3,0-0.7,0.2-1,0.5
	c-0.4,0.4-0.6,0.9-0.5,1.4C390.2,190.8,390.5,191.3,390.9,191.7z M395.6,204.3c-0.6-0.6-1-1.1-1.3-1.7c-0.3-0.6-0.4-1.1-0.5-1.6
	c0-0.5,0-1,0.1-1.4l1.6,0.3c0,0.2-0.1,0.5-0.1,0.9c0,0.3,0,0.7,0.2,1.1c0.1,0.4,0.5,0.9,0.9,1.3c0.6,0.6,1.3,1,2,1.1
	c0.7,0.1,1.4-0.2,2-0.8l1.6-1.6l-0.1-0.1c-0.2,0.1-0.5,0.1-0.9,0.1c-0.4,0-0.8,0-1.2-0.1c-0.5-0.1-0.9-0.5-1.4-1
	c-0.6-0.6-1-1.3-1.2-2.1c-0.2-0.8-0.2-1.6,0.1-2.5c0.3-0.8,0.8-1.7,1.6-2.5c0.8-0.8,1.6-1.3,2.5-1.6c0.9-0.3,1.7-0.4,2.5-0.2
	c0.8,0.2,1.6,0.6,2.2,1.2c0.5,0.5,0.8,1,0.9,1.4c0.1,0.5,0.2,0.9,0.1,1.2c0,0.4-0.1,0.7-0.1,0.9l0.1,0.1l1.2-1.2l1.1,1.1l-7.9,7.9
	c-0.7,0.7-1.4,1.1-2.1,1.2c-0.7,0.1-1.4,0-2.1-0.3C396.9,205.4,396.2,204.9,395.6,204.3z M399.8,200c0.5,0.5,1,0.8,1.5,0.9
	c0.5,0.1,1.1,0,1.7-0.2c0.6-0.2,1.2-0.6,1.7-1.2c0.6-0.6,1-1.1,1.2-1.7c0.3-0.6,0.3-1.2,0.3-1.7s-0.4-1.1-0.9-1.6
	c-0.5-0.5-1-0.8-1.6-0.9c-0.6-0.1-1.2,0-1.8,0.3c-0.6,0.3-1.1,0.7-1.7,1.2c-0.5,0.5-0.9,1.1-1.2,1.7c-0.2,0.6-0.3,1.2-0.2,1.7
	C399,199,399.3,199.5,399.8,200z M407.3,210.1c-0.7-0.7-1.2-1.5-1.4-2.4c-0.2-0.9-0.2-1.7,0.1-2.6c0.3-0.9,0.9-1.7,1.6-2.5
	c0.8-0.8,1.6-1.3,2.5-1.7c0.9-0.3,1.8-0.4,2.6-0.2c0.9,0.2,1.6,0.6,2.3,1.3c0.4,0.4,0.7,0.9,1,1.4c0.3,0.5,0.4,1.1,0.4,1.7
	c0,0.6-0.1,1.3-0.4,2c-0.3,0.7-0.8,1.4-1.5,2.1l-0.5,0.5l-5.9-5.9l1-1l4.7,4.7c0.4-0.4,0.7-0.9,0.9-1.4c0.2-0.5,0.2-1,0.1-1.5
	c-0.1-0.5-0.4-1-0.8-1.4c-0.5-0.5-1-0.8-1.6-0.9c-0.6-0.1-1.1-0.1-1.7,0.1c-0.6,0.2-1,0.5-1.5,0.9l-0.7,0.7c-0.6,0.6-1,1.2-1.2,1.8
	c-0.2,0.6-0.2,1.2-0.1,1.8c0.2,0.6,0.5,1.1,0.9,1.6c0.3,0.3,0.6,0.6,1,0.7c0.3,0.2,0.7,0.2,1.1,0.3c0.4,0,0.7-0.1,1.1-0.2l0.8,1.5
	c-0.5,0.3-1.1,0.4-1.6,0.4c-0.6,0-1.2-0.1-1.7-0.4C408.3,211.1,407.8,210.7,407.3,210.1z M412.4,215l7.7-7.7l1.1,1.1l-1.2,1.2
	l0.1,0.1c0.6-0.3,1.2-0.3,1.7-0.2c0.6,0.1,1.1,0.4,1.6,0.9c0.5,0.5,0.8,1,0.9,1.6c0.1,0.6,0.1,1.2-0.2,1.8l0.1,0.1
	c0.6-0.2,1.2-0.2,1.8-0.1c0.6,0.2,1.2,0.5,1.8,1.1c0.7,0.7,1,1.5,1,2.3c0,0.9-0.4,1.8-1.3,2.7l-5.2,5.2l-1.2-1.2l5.2-5.2
	c0.6-0.6,0.8-1.1,0.8-1.7c-0.1-0.6-0.3-1-0.7-1.5c-0.5-0.5-1.1-0.8-1.8-0.8c-0.6,0-1.2,0.3-1.7,0.8l-5,5l-1.2-1.2l5.3-5.3
	c0.4-0.4,0.6-0.9,0.6-1.5c0-0.6-0.2-1.1-0.7-1.5c-0.3-0.3-0.7-0.5-1.1-0.6c-0.4-0.1-0.9-0.1-1.3,0c-0.4,0.1-0.9,0.4-1.2,0.8
	l-4.8,4.8L412.4,215z M427.8,230.7c-0.7-0.7-1.2-1.5-1.4-2.4c-0.2-0.9-0.2-1.7,0.1-2.6c0.3-0.9,0.9-1.7,1.6-2.5
	c0.8-0.8,1.6-1.3,2.5-1.7c0.9-0.3,1.8-0.4,2.6-0.2c0.9,0.2,1.6,0.6,2.3,1.3c0.4,0.4,0.7,0.9,1,1.4c0.3,0.5,0.4,1.1,0.4,1.7
	c0,0.6-0.1,1.3-0.4,2c-0.3,0.7-0.8,1.4-1.5,2.1l-0.5,0.5l-5.9-5.9l1-1l4.7,4.7c0.4-0.4,0.7-0.9,0.9-1.4c0.2-0.5,0.2-1,0.1-1.5
	c-0.1-0.5-0.4-1-0.8-1.4c-0.5-0.5-1-0.8-1.6-0.9c-0.6-0.1-1.1-0.1-1.7,0.1c-0.6,0.2-1,0.5-1.5,0.9l-0.7,0.7c-0.6,0.6-1,1.2-1.2,1.8
	c-0.2,0.6-0.2,1.2-0.1,1.8c0.2,0.6,0.5,1.1,0.9,1.6c0.3,0.3,0.6,0.5,1,0.7c0.3,0.2,0.7,0.2,1.1,0.3c0.4,0,0.7-0.1,1.1-0.2l0.8,1.5
	c-0.5,0.3-1.1,0.4-1.6,0.4c-0.6,0-1.2-0.1-1.7-0.4C428.9,231.6,428.3,231.2,427.8,230.7z M438.8,232l-4.6,4.6l-1.2-1.2l7.7-7.7
	l1.1,1.1l-1.2,1.2l0.1,0.1c0.6-0.2,1.2-0.3,1.8-0.1c0.6,0.1,1.2,0.5,1.8,1.1c0.5,0.5,0.9,1.1,1,1.7c0.2,0.6,0.2,1.2,0,1.9
	c-0.2,0.6-0.6,1.3-1.3,2l-4.9,4.9l-1.2-1.2l4.8-4.8c0.6-0.6,0.9-1.2,0.9-1.9c0-0.7-0.2-1.3-0.8-1.8c-0.4-0.4-0.8-0.6-1.3-0.8
	c-0.5-0.1-0.9-0.1-1.4,0C439.7,231.3,439.2,231.6,438.8,232z M452.3,239.4l-1,1l-4-4l1-1L452.3,239.4z M451.3,234.7l1.2,1.2
	l-7.4,7.4c-0.3,0.3-0.5,0.6-0.6,0.9c-0.1,0.3,0,0.5,0,0.7c0.1,0.2,0.2,0.4,0.4,0.6c0.1,0.1,0.2,0.2,0.3,0.3c0.1,0.1,0.2,0.1,0.2,0.2
	l-0.8,1.3c-0.1,0-0.3-0.1-0.4-0.2c-0.2-0.1-0.4-0.3-0.6-0.5c-0.3-0.3-0.6-0.7-0.8-1.2c-0.2-0.5-0.2-0.9-0.1-1.5
	c0.1-0.5,0.4-1,0.8-1.4L451.3,234.7z"/>
<path class="st1" d="M339.1,90.8l139.3,139.3c11.3,11.3,11.3,29.7,0,41l0,0c-11.3,11.3-29.7,11.3-41,0L298.1,131.8
	c-11.3-11.3-11.3-29.7,0-41l0,0C309.5,79.5,327.8,79.5,339.1,90.8z"/>
<path class="st2" d="M233.5,229.9l112.1-29.4c15.5-4.1,31.3,5.2,35.4,20.7l0,0c4.1,15.5-5.2,31.3-20.7,35.4L248.2,286
	c-15.5,4.1-31.3-5.2-35.4-20.7l0,0C208.7,249.8,218,233.9,233.5,229.9z"/>
<path class="st3" d="M265.2,248.4l-1.7,0.4c-0.2-0.5-0.5-0.8-0.9-1.2c-0.3-0.3-0.7-0.5-1.2-0.7c-0.4-0.2-0.9-0.3-1.3-0.3
	c-0.5,0-0.9,0-1.4,0.2c-0.9,0.2-1.6,0.6-2.1,1.3c-0.6,0.6-1,1.4-1.1,2.3c-0.2,0.9-0.1,2,0.2,3.2c0.3,1.2,0.8,2.2,1.4,2.9
	c0.6,0.7,1.3,1.2,2.1,1.5c0.8,0.2,1.6,0.3,2.5,0c0.5-0.1,0.9-0.3,1.3-0.5s0.7-0.5,1-0.9c0.3-0.4,0.5-0.7,0.7-1.2
	c0.2-0.4,0.2-0.9,0.2-1.4l1.7-0.4c0.1,0.8,0,1.5-0.2,2.1c-0.2,0.7-0.5,1.2-0.9,1.8c-0.4,0.5-0.9,1-1.5,1.3c-0.6,0.4-1.2,0.6-1.9,0.8
	c-1.2,0.3-2.3,0.3-3.4,0c-1.1-0.3-2-1-2.9-1.9s-1.4-2.2-1.8-3.6c-0.4-1.5-0.5-2.8-0.2-4.1c0.3-1.2,0.8-2.2,1.5-3.1
	c0.8-0.8,1.8-1.4,3-1.7c0.7-0.2,1.4-0.3,2.1-0.2c0.7,0,1.3,0.2,1.9,0.5c0.6,0.3,1.2,0.6,1.6,1.1
	C264.4,247.2,264.8,247.7,265.2,248.4z M270.2,257.4l-2.8-10.6l1.6-0.4l0.4,1.6l0.1,0c0.1-0.6,0.3-1.1,0.7-1.5
	c0.4-0.5,0.9-0.8,1.6-0.9c0.1,0,0.3-0.1,0.4-0.1c0.2,0,0.3-0.1,0.4-0.1l0.4,1.6c-0.1,0-0.2,0-0.4,0c-0.2,0-0.4,0.1-0.6,0.1
	c-0.5,0.1-0.9,0.4-1.3,0.7c-0.3,0.3-0.6,0.7-0.7,1.1c-0.1,0.4-0.1,0.9,0,1.4l1.8,6.7L270.2,257.4z M281.6,254.7c-1,0.3-2,0.3-2.8,0
	c-0.9-0.3-1.6-0.7-2.2-1.5c-0.6-0.7-1.1-1.6-1.3-2.7c-0.3-1.1-0.3-2.1-0.2-3c0.2-0.9,0.6-1.7,1.2-2.4c0.6-0.7,1.4-1.1,2.3-1.4
	c0.5-0.1,1.1-0.2,1.7-0.2c0.6,0,1.2,0.2,1.7,0.5c0.5,0.3,1,0.7,1.5,1.3c0.4,0.6,0.8,1.4,1,2.4l0.2,0.7l-8.1,2.1l-0.4-1.4l6.5-1.7
	c-0.2-0.6-0.4-1.1-0.8-1.5c-0.4-0.4-0.8-0.7-1.3-0.8c-0.5-0.2-1-0.2-1.6,0c-0.6,0.2-1.2,0.5-1.5,0.9c-0.4,0.4-0.6,0.9-0.8,1.5
	c-0.1,0.6-0.1,1.2,0.1,1.7l0.2,0.9c0.2,0.8,0.5,1.4,0.9,1.9c0.4,0.5,0.9,0.8,1.5,1c0.6,0.2,1.2,0.1,1.8,0c0.4-0.1,0.8-0.3,1.1-0.5
	c0.3-0.2,0.6-0.5,0.8-0.8c0.2-0.3,0.3-0.7,0.3-1.1l1.7,0c0,0.6-0.2,1.1-0.5,1.6c-0.3,0.5-0.7,0.9-1.2,1.3
	C282.9,254.2,282.3,254.5,281.6,254.7z M291.5,252.1c-0.7,0.2-1.3,0.2-1.9,0.1c-0.6-0.1-1.1-0.4-1.6-0.8c-0.4-0.4-0.8-0.9-0.9-1.6
	c-0.2-0.6-0.2-1.1,0-1.6c0.1-0.4,0.4-0.8,0.7-1.1c0.3-0.3,0.7-0.6,1.2-0.8c0.5-0.2,0.9-0.5,1.4-0.6c0.6-0.2,1.1-0.4,1.5-0.6
	c0.4-0.2,0.7-0.3,0.8-0.5c0.2-0.2,0.2-0.4,0.1-0.6l0-0.1c-0.2-0.7-0.5-1.2-1-1.4c-0.5-0.3-1.1-0.3-1.8-0.1c-0.8,0.2-1.3,0.5-1.7,1
	c-0.4,0.5-0.6,0.9-0.6,1.3l-1.7-0.1c0.1-0.7,0.3-1.3,0.7-1.8c0.4-0.5,0.8-0.9,1.3-1.2c0.5-0.3,1-0.5,1.6-0.6
	c0.3-0.1,0.7-0.2,1.2-0.2c0.5,0,0.9,0,1.4,0.2c0.5,0.1,0.9,0.4,1.3,0.8c0.4,0.4,0.7,1.1,0.9,1.9l1.8,7l-1.6,0.4l-0.4-1.4l-0.1,0
	c0,0.3-0.2,0.6-0.4,0.9s-0.5,0.6-0.8,0.9C292.6,251.7,292.1,251.9,291.5,252.1z M291.4,250.6c0.6-0.2,1.1-0.4,1.5-0.8
	c0.4-0.4,0.6-0.8,0.7-1.2c0.1-0.5,0.1-0.9,0-1.3l-0.4-1.5c0,0.1-0.2,0.2-0.4,0.3c-0.2,0.1-0.5,0.3-0.8,0.4c-0.3,0.1-0.6,0.2-0.8,0.4
	c-0.3,0.1-0.5,0.2-0.7,0.3c-0.4,0.2-0.8,0.4-1.1,0.6c-0.3,0.2-0.6,0.5-0.7,0.8c-0.2,0.3-0.2,0.6-0.1,1.1c0.1,0.6,0.5,0.9,1,1.1
	C290.2,250.8,290.7,250.8,291.4,250.6z M301.1,238.1l0.4,1.4l-5.5,1.4l-0.4-1.4L301.1,238.1z M296.5,236.6l1.6-0.4l2.6,10.1
	c0.1,0.5,0.3,0.8,0.5,1c0.2,0.2,0.4,0.3,0.6,0.3c0.2,0,0.5,0,0.7-0.1c0.2,0,0.3-0.1,0.4-0.1c0.1-0.1,0.2-0.1,0.3-0.1l0.7,1.4
	c-0.1,0.1-0.2,0.2-0.4,0.2c-0.2,0.1-0.4,0.2-0.7,0.3c-0.5,0.1-0.9,0.1-1.4,0.1c-0.5-0.1-0.9-0.3-1.3-0.6c-0.4-0.3-0.7-0.8-0.8-1.4
	L296.5,236.6z M306.3,248l-2.8-10.6l1.6-0.4l2.8,10.6L306.3,248z M303.9,235.4c-0.3,0.1-0.6,0-0.9-0.1c-0.3-0.2-0.5-0.4-0.5-0.7
	c-0.1-0.3,0-0.6,0.1-0.9c0.2-0.3,0.4-0.5,0.7-0.5c0.3-0.1,0.6,0,0.9,0.1c0.3,0.2,0.5,0.4,0.5,0.7s0,0.6-0.1,0.9
	C304.4,235.2,304.2,235.4,303.9,235.4z M316.7,234l-1.1,11.6L314,246l-6.7-9.5l1.8-0.5l5.1,7.6l0.1,0l0.7-9.2L316.7,234z
	 M321.6,243.9l-2.8-10.6l1.6-0.4l2.8,10.6L321.6,243.9z M319.2,231.4c-0.3,0.1-0.6,0-0.9-0.1c-0.3-0.2-0.5-0.4-0.5-0.7
	c-0.1-0.3,0-0.6,0.1-0.9c0.2-0.3,0.4-0.5,0.7-0.5c0.3-0.1,0.6,0,0.9,0.1c0.3,0.2,0.5,0.4,0.5,0.7c0.1,0.3,0,0.6-0.1,0.9
	C319.8,231.2,319.6,231.3,319.2,231.4z M328.1,231l0.4,1.4l-5.5,1.4l-0.4-1.4L328.1,231z M323.5,229.5l1.6-0.4l2.6,10.1
	c0.1,0.5,0.3,0.8,0.5,1c0.2,0.2,0.4,0.3,0.6,0.3c0.2,0,0.5,0,0.7-0.1c0.2,0,0.3-0.1,0.4-0.1c0.1-0.1,0.2-0.1,0.3-0.1l0.7,1.4
	c-0.1,0.1-0.2,0.2-0.4,0.2c-0.2,0.1-0.4,0.2-0.7,0.3c-0.5,0.1-0.9,0.1-1.4,0.1c-0.5-0.1-0.9-0.3-1.3-0.6c-0.4-0.3-0.7-0.8-0.8-1.4
	L323.5,229.5z M335.3,244.6c-0.3,0.1-0.5,0.1-0.8,0.1c-0.2,0-0.4,0-0.5,0l0-1.5c0.4,0,0.8-0.1,1.1-0.2c0.3-0.1,0.5-0.3,0.7-0.6
	c0.2-0.3,0.3-0.7,0.3-1.3l0.1-0.9l-6.7-9.6l1.8-0.5l5.1,7.6l0.1,0l0.7-9.2l1.8-0.5l-1.3,13.3c-0.1,0.6-0.2,1.1-0.4,1.5
	c-0.2,0.4-0.5,0.8-0.8,1.1C336.3,244.3,335.8,244.5,335.3,244.6z"/>
<path class="st4" d="M233.5,229.9l112.1-29.4c15.5-4.1,31.3,5.2,35.4,20.7l0,0c4.1,15.5-5.2,31.3-20.7,35.4L248.2,286
	c-15.5,4.1-31.3-5.2-35.4-20.7l0,0C208.7,249.8,218,233.9,233.5,229.9z"/>
<path class="st0" d="M61.5,236l-1.8-0.4l8.3-13.1l1.8,0.4l2.2,15.3l-1.8-0.4l-1.7-12.9l-0.1,0L61.5,236z M63.3,230.5l7.3,1.6
	l-0.3,1.5l-7.3-1.6L63.3,230.5z M77.8,239.7c-0.9-0.2-1.6-0.6-2.2-1.2c-0.6-0.6-1-1.4-1.2-2.3c-0.2-0.9-0.2-1.9,0.1-3.1
	c0.2-1.1,0.6-2.1,1.2-2.8c0.6-0.7,1.2-1.3,2-1.6c0.8-0.3,1.6-0.4,2.5-0.2c0.7,0.1,1.2,0.4,1.6,0.7c0.4,0.3,0.6,0.6,0.8,1
	c0.2,0.3,0.3,0.6,0.4,0.8l0.1,0l1.1-5.2l1.6,0.4l-3.1,14.2l-1.6-0.3l0.4-1.6l-0.2,0c-0.2,0.2-0.4,0.4-0.7,0.6
	c-0.3,0.2-0.7,0.4-1.1,0.6C79.1,239.9,78.5,239.9,77.8,239.7z M78.4,238.3c0.7,0.1,1.2,0.1,1.8-0.2c0.5-0.2,1-0.7,1.3-1.2
	c0.4-0.6,0.6-1.2,0.8-2.1c0.2-0.8,0.2-1.5,0.1-2.2c-0.1-0.7-0.3-1.2-0.7-1.6c-0.4-0.4-0.9-0.7-1.6-0.9c-0.7-0.1-1.3-0.1-1.9,0.2
	c-0.5,0.3-1,0.7-1.3,1.2c-0.4,0.6-0.6,1.2-0.8,2c-0.2,0.8-0.2,1.5-0.1,2.1c0.1,0.7,0.3,1.2,0.7,1.7
	C77.2,237.8,77.7,238.1,78.4,238.3z M89.1,242.2c-0.7-0.1-1.3-0.4-1.8-0.8c-0.5-0.4-0.9-0.8-1.1-1.4c-0.2-0.6-0.3-1.2-0.1-1.9
	c0.1-0.6,0.4-1.1,0.7-1.4c0.3-0.3,0.7-0.6,1.2-0.7c0.4-0.1,0.9-0.2,1.4-0.2c0.5,0,1,0,1.5,0.1c0.7,0.1,1.2,0.1,1.6,0.2
	c0.4,0,0.7,0,0.9,0c0.2-0.1,0.3-0.2,0.4-0.5l0-0.1c0.1-0.7,0.1-1.3-0.2-1.7c-0.3-0.5-0.8-0.8-1.6-0.9c-0.8-0.2-1.4-0.1-2,0.1
	c-0.5,0.2-0.9,0.5-1.2,0.9l-1.4-0.9c0.4-0.6,0.9-1,1.4-1.3c0.5-0.3,1.1-0.4,1.7-0.4c0.6,0,1.1,0,1.7,0.1c0.3,0.1,0.7,0.2,1.2,0.4
	c0.4,0.2,0.8,0.4,1.2,0.8c0.4,0.3,0.6,0.8,0.8,1.4c0.2,0.6,0.2,1.3,0,2.1l-1.5,7l-1.6-0.4l0.3-1.4l-0.1,0c-0.2,0.2-0.4,0.4-0.7,0.6
	c-0.3,0.2-0.7,0.4-1.2,0.5C90.3,242.3,89.7,242.3,89.1,242.2z M89.7,240.8c0.6,0.1,1.2,0.1,1.7,0c0.5-0.2,0.9-0.4,1.2-0.8
	c0.3-0.4,0.5-0.8,0.6-1.2l0.3-1.5c-0.1,0.1-0.3,0.1-0.5,0.1c-0.2,0-0.5,0-0.8,0c-0.3,0-0.6,0-0.9-0.1c-0.3,0-0.5,0-0.7-0.1
	c-0.4,0-0.9,0-1.3,0c-0.4,0-0.7,0.2-1,0.4c-0.3,0.2-0.5,0.5-0.5,0.9c-0.1,0.6,0,1,0.4,1.4C88.5,240.4,89,240.6,89.7,240.8z
	 M96.2,247.6l3.2-14.7l1.6,0.3l-0.4,1.7l0.2,0c0.2-0.2,0.4-0.4,0.7-0.6c0.3-0.2,0.6-0.4,1.1-0.6c0.5-0.1,1-0.1,1.7,0
	c0.9,0.2,1.6,0.6,2.2,1.2c0.6,0.6,1,1.3,1.2,2.3c0.2,0.9,0.2,1.9-0.1,3c-0.2,1.1-0.6,2.1-1.2,2.8c-0.6,0.7-1.2,1.3-2,1.6
	c-0.8,0.3-1.6,0.4-2.5,0.2c-0.7-0.1-1.2-0.4-1.6-0.7c-0.4-0.3-0.6-0.6-0.8-1c-0.2-0.3-0.3-0.6-0.4-0.8l-0.1,0l-1.2,5.6L96.2,247.6z
	 M99.8,238.6c-0.2,0.8-0.2,1.5-0.1,2.2c0.1,0.7,0.3,1.2,0.7,1.7c0.4,0.4,0.9,0.7,1.6,0.9c0.7,0.1,1.3,0.1,1.8-0.2
	c0.5-0.3,1-0.7,1.4-1.2c0.4-0.6,0.6-1.2,0.8-2c0.2-0.8,0.2-1.5,0.1-2.1c-0.1-0.7-0.3-1.2-0.7-1.7c-0.4-0.5-0.9-0.8-1.6-0.9
	c-0.7-0.1-1.3-0.1-1.8,0.1c-0.5,0.2-1,0.6-1.3,1.2C100.2,237.2,100,237.8,99.8,238.6z M115.9,236.5l-0.3,1.4l-5.5-1.2l0.3-1.4
	L115.9,236.5z M112.5,233.1l1.6,0.4l-2.2,10.2c-0.1,0.5-0.1,0.8,0,1.1c0.1,0.3,0.2,0.4,0.4,0.6c0.2,0.1,0.4,0.2,0.7,0.3
	c0.2,0,0.3,0.1,0.5,0.1c0.1,0,0.2,0,0.3,0l0,1.5c-0.1,0-0.3,0-0.5,0c-0.2,0-0.5,0-0.8-0.1c-0.5-0.1-0.9-0.3-1.3-0.6
	c-0.4-0.3-0.7-0.7-0.9-1.1c-0.2-0.5-0.2-1-0.1-1.6L112.5,233.1z M119.1,248.6c-0.7-0.1-1.3-0.4-1.8-0.8c-0.5-0.4-0.9-0.8-1.1-1.4
	c-0.2-0.6-0.3-1.2-0.1-1.9c0.1-0.6,0.4-1.1,0.7-1.4c0.3-0.3,0.7-0.6,1.2-0.7c0.4-0.1,0.9-0.2,1.4-0.2c0.5,0,1,0,1.5,0.1
	c0.7,0.1,1.2,0.1,1.6,0.2c0.4,0,0.7,0,0.9,0c0.2-0.1,0.3-0.2,0.4-0.5l0-0.1c0.1-0.7,0.1-1.3-0.2-1.7c-0.3-0.5-0.8-0.8-1.6-0.9
	c-0.8-0.2-1.4-0.1-2,0.1c-0.5,0.2-0.9,0.5-1.2,0.9l-1.4-0.9c0.4-0.6,0.9-1,1.4-1.3c0.5-0.3,1.1-0.4,1.7-0.4c0.6,0,1.1,0,1.7,0.1
	c0.3,0.1,0.7,0.2,1.2,0.4c0.4,0.2,0.8,0.4,1.2,0.8c0.4,0.3,0.6,0.8,0.8,1.4c0.2,0.6,0.2,1.3,0,2.1l-1.5,7l-1.6-0.4l0.3-1.4l-0.1,0
	c-0.2,0.2-0.4,0.4-0.7,0.6c-0.3,0.2-0.7,0.4-1.2,0.5C120.3,248.8,119.8,248.8,119.1,248.6z M119.7,247.2c0.6,0.1,1.2,0.1,1.7,0
	c0.5-0.2,0.9-0.4,1.2-0.8c0.3-0.4,0.5-0.8,0.6-1.2l0.3-1.5c-0.1,0.1-0.3,0.1-0.5,0.1c-0.2,0-0.5,0-0.8,0c-0.3,0-0.6,0-0.9-0.1
	c-0.3,0-0.5-0.1-0.7-0.1c-0.4,0-0.9,0-1.3,0c-0.4,0-0.7,0.2-1,0.4c-0.3,0.2-0.5,0.5-0.5,0.9c-0.1,0.6,0,1,0.4,1.4
	C118.5,246.8,119,247.1,119.7,247.2z M127.3,250.1l3.1-14.2l1.6,0.4l-1.1,5.2l0.1,0c0.2-0.2,0.4-0.4,0.7-0.6
	c0.3-0.2,0.6-0.4,1.1-0.6c0.5-0.1,1-0.1,1.7,0c0.9,0.2,1.6,0.6,2.2,1.2c0.6,0.6,1,1.3,1.2,2.3c0.2,0.9,0.2,1.9-0.1,3
	c-0.2,1.1-0.6,2.1-1.2,2.8c-0.6,0.7-1.2,1.3-2,1.6c-0.8,0.3-1.6,0.4-2.5,0.2c-0.7-0.1-1.2-0.4-1.6-0.7c-0.4-0.3-0.6-0.6-0.8-1
	c-0.2-0.3-0.3-0.6-0.4-0.8l-0.2,0l-0.4,1.6L127.3,250.1z M130,245.1c-0.2,0.8-0.2,1.5-0.1,2.2c0.1,0.7,0.3,1.2,0.7,1.7
	c0.4,0.4,0.9,0.7,1.6,0.9c0.7,0.1,1.3,0.1,1.8-0.2c0.5-0.3,1-0.7,1.4-1.2c0.4-0.6,0.6-1.2,0.8-2c0.2-0.8,0.2-1.5,0.1-2.1
	c-0.1-0.7-0.3-1.2-0.7-1.7c-0.4-0.5-0.9-0.8-1.6-0.9c-0.7-0.1-1.3-0.1-1.8,0.1c-0.5,0.2-1,0.6-1.3,1.2
	C130.5,243.7,130.2,244.3,130,245.1z M139.2,252.7l2.3-10.7l1.6,0.4l-2.3,10.7L139.2,252.7z M142.7,240.4c-0.3-0.1-0.6-0.2-0.8-0.5
	c-0.2-0.3-0.2-0.6-0.2-0.9c0.1-0.3,0.2-0.5,0.5-0.7c0.3-0.2,0.6-0.2,0.9-0.1c0.3,0.1,0.6,0.2,0.7,0.5c0.2,0.3,0.2,0.6,0.2,0.9
	c-0.1,0.3-0.2,0.5-0.5,0.7C143.3,240.5,143,240.5,142.7,240.4z M148.5,239.8l-3.1,14.2l-1.6-0.4l3.1-14.2L148.5,239.8z M148.5,254.7
	l2.3-10.7l1.6,0.4l-2.3,10.7L148.5,254.7z M152,242.4c-0.3-0.1-0.6-0.2-0.8-0.5c-0.2-0.3-0.2-0.6-0.2-0.9c0.1-0.3,0.2-0.5,0.5-0.7
	c0.3-0.2,0.6-0.2,0.9-0.1c0.3,0.1,0.6,0.2,0.7,0.5c0.2,0.3,0.2,0.6,0.2,0.9c-0.1,0.3-0.2,0.5-0.5,0.7
	C152.6,242.5,152.3,242.5,152,242.4z M160.1,246l-0.3,1.4l-5.5-1.2l0.3-1.4L160.1,246z M156.7,242.6l1.6,0.4l-2.2,10.2
	c-0.1,0.5-0.1,0.8,0,1.1c0.1,0.3,0.2,0.4,0.4,0.6c0.2,0.1,0.4,0.2,0.7,0.3c0.2,0,0.3,0.1,0.4,0.1c0.1,0,0.2,0,0.3,0l0,1.5
	c-0.1,0-0.3,0-0.5,0c-0.2,0-0.5,0-0.8-0.1c-0.5-0.1-0.9-0.3-1.3-0.6c-0.4-0.3-0.7-0.7-0.9-1.1c-0.2-0.5-0.2-1-0.1-1.6L156.7,242.6z
	 M160.4,261.5c-0.3-0.1-0.5-0.1-0.7-0.2c-0.2-0.1-0.4-0.2-0.4-0.2l0.7-1.4c0.4,0.2,0.7,0.3,1,0.3c0.3,0,0.6,0,0.9-0.2
	c0.3-0.2,0.6-0.5,0.9-1l0.5-0.8l-1.6-11.6l1.8,0.4l1.1,9.1l0.1,0l4.8-7.9l1.8,0.4l-7.2,11.2c-0.3,0.5-0.7,0.9-1.1,1.2
	c-0.4,0.3-0.8,0.5-1.2,0.6C161.4,261.6,160.9,261.6,160.4,261.5z"/>
<path class="st1" d="M57,198.2l130,28c15.7,3.4,25.6,18.8,22.2,34.5v0c-3.4,15.7-18.8,25.6-34.5,22.2l-130-28
	c-15.7-3.4-25.6-18.8-22.2-34.5l0,0C25.9,204.8,41.3,194.8,57,198.2z"/>
<path class="st0" d="M50.1,156.1l-1.6,0.8c-0.3-0.4-0.7-0.7-1.1-1c-0.4-0.2-0.8-0.4-1.3-0.5c-0.4-0.1-0.9-0.1-1.4,0
	s-0.9,0.2-1.3,0.4c-0.8,0.4-1.4,0.9-1.9,1.6c-0.5,0.7-0.7,1.5-0.7,2.5c0,1,0.3,2,0.8,3.1c0.5,1.1,1.2,2,1.9,2.6c0.8,0.6,1.5,1,2.4,1
	c0.8,0.1,1.7,0,2.4-0.4c0.4-0.2,0.8-0.5,1.2-0.8c0.3-0.3,0.6-0.7,0.8-1.1c0.2-0.4,0.4-0.8,0.4-1.3c0.1-0.5,0-0.9-0.1-1.4l1.6-0.8
	c0.2,0.7,0.3,1.4,0.2,2.1c-0.1,0.7-0.2,1.3-0.5,1.9c-0.3,0.6-0.7,1.1-1.2,1.6c-0.5,0.5-1.1,0.9-1.7,1.2c-1.1,0.5-2.2,0.7-3.4,0.6
	c-1.1-0.1-2.2-0.6-3.2-1.4c-1-0.8-1.8-1.8-2.5-3.2c-0.7-1.4-1-2.7-1-3.9c0-1.2,0.3-2.4,1-3.3c0.6-1,1.5-1.7,2.6-2.2
	c0.7-0.3,1.3-0.5,2-0.6c0.7-0.1,1.3-0.1,2,0.1c0.6,0.1,1.3,0.4,1.8,0.8C49.1,155,49.7,155.5,50.1,156.1z M60.8,162.4
	c-0.9,0.4-1.8,0.6-2.6,0.5c-0.9-0.1-1.7-0.5-2.4-1c-0.7-0.6-1.3-1.4-1.8-2.4c-0.5-1-0.7-2-0.7-3c0-0.9,0.3-1.8,0.7-2.5
	c0.5-0.7,1.2-1.3,2-1.7c0.9-0.4,1.8-0.6,2.6-0.5c0.9,0.1,1.7,0.5,2.4,1c0.7,0.6,1.4,1.4,1.8,2.4c0.5,1,0.7,2,0.7,2.9
	c0,0.9-0.3,1.8-0.7,2.5C62.4,161.3,61.7,161.9,60.8,162.4z M60.2,161c0.7-0.3,1.1-0.8,1.4-1.3c0.3-0.6,0.4-1.2,0.3-1.8
	c-0.1-0.7-0.2-1.3-0.6-2s-0.7-1.2-1.2-1.7c-0.5-0.5-1-0.8-1.6-0.9c-0.6-0.1-1.2-0.1-1.9,0.3c-0.7,0.3-1.1,0.8-1.4,1.3
	c-0.3,0.6-0.4,1.2-0.3,1.8c0.1,0.7,0.2,1.3,0.6,2c0.3,0.7,0.7,1.2,1.2,1.7s1,0.8,1.6,0.9C58.9,161.4,59.5,161.3,60.2,161z
	 M67.5,158.9l-4.7-9.9l1.5-0.7l0.7,1.5l0.1-0.1c0-0.6,0.1-1.2,0.4-1.7c0.3-0.5,0.8-0.9,1.4-1.2c0.7-0.3,1.3-0.4,1.8-0.3
	c0.6,0.1,1.1,0.3,1.6,0.7l0.1,0c0-0.6,0.2-1.2,0.6-1.8c0.4-0.5,0.9-1,1.6-1.3c0.9-0.4,1.7-0.5,2.6-0.2c0.8,0.3,1.5,1,2.1,2.2
	l3.1,6.6l-1.5,0.7l-3.1-6.6c-0.3-0.7-0.8-1.2-1.3-1.3c-0.5-0.1-1.1-0.1-1.6,0.2c-0.7,0.3-1.1,0.8-1.3,1.4c-0.2,0.6-0.1,1.2,0.2,1.9
	l3,6.4l-1.5,0.7l-3.2-6.7c-0.3-0.6-0.7-0.9-1.2-1.1c-0.5-0.2-1.1-0.1-1.7,0.1c-0.4,0.2-0.7,0.5-1,0.8c-0.2,0.4-0.4,0.8-0.4,1.3
	c0,0.5,0.1,0.9,0.3,1.4l2.9,6.2L67.5,158.9z M83.2,151.5l-4.7-9.9l1.5-0.7l0.7,1.5l0.1-0.1c0-0.6,0.1-1.2,0.4-1.7
	c0.3-0.5,0.8-0.9,1.4-1.2c0.7-0.3,1.3-0.4,1.8-0.3c0.6,0.1,1.1,0.3,1.6,0.7l0.1,0c0-0.6,0.2-1.2,0.6-1.8c0.4-0.5,0.9-1,1.6-1.3
	c0.9-0.4,1.7-0.5,2.6-0.2c0.8,0.3,1.5,1,2.1,2.2l3.1,6.6l-1.5,0.7l-3.1-6.6c-0.3-0.7-0.8-1.2-1.3-1.3c-0.5-0.1-1.1-0.1-1.6,0.2
	c-0.7,0.3-1.1,0.8-1.3,1.4c-0.2,0.6-0.1,1.2,0.2,1.8l3,6.4l-1.5,0.7l-3.2-6.7c-0.3-0.6-0.7-0.9-1.2-1.1c-0.5-0.2-1.1-0.1-1.7,0.1
	c-0.4,0.2-0.7,0.5-1,0.8c-0.2,0.4-0.4,0.8-0.4,1.3c0,0.5,0.1,0.9,0.3,1.4l2.9,6.2L83.2,151.5z M103.2,137l-2.8-5.8l1.5-0.7l4.7,9.9
	l-1.5,0.7l-0.8-1.7l-0.1,0c0,0.6-0.2,1.2-0.5,1.8c-0.3,0.6-0.9,1-1.6,1.4c-0.6,0.3-1.2,0.4-1.8,0.4c-0.6,0-1.2-0.3-1.7-0.7
	c-0.5-0.4-1-1.1-1.4-1.9l-3-6.3l1.5-0.7l2.9,6.2c0.3,0.7,0.8,1.2,1.4,1.4c0.6,0.2,1.2,0.2,1.9-0.1c0.4-0.2,0.7-0.5,1-0.8
	c0.3-0.4,0.5-0.8,0.6-1.4C103.6,138.2,103.5,137.6,103.2,137z M108.1,132.4l2.8,5.9l-1.5,0.7l-4.7-9.9l1.5-0.7l0.7,1.5l0.1-0.1
	c0-0.6,0.2-1.2,0.5-1.7c0.3-0.5,0.9-1,1.6-1.3c0.7-0.3,1.3-0.5,1.9-0.4c0.6,0,1.2,0.3,1.8,0.7c0.5,0.4,1,1,1.4,1.9l3,6.3l-1.5,0.7
	l-2.9-6.2c-0.4-0.8-0.9-1.3-1.5-1.5c-0.6-0.2-1.3-0.2-2,0.1c-0.5,0.2-0.9,0.5-1.1,0.9c-0.3,0.4-0.4,0.8-0.5,1.3
	C107.7,131.3,107.9,131.8,108.1,132.4z M120,134l-4.7-9.9l1.5-0.7l4.7,9.9L120,134z M115.3,122.1c-0.3,0.1-0.6,0.2-0.9,0.1
	c-0.3-0.1-0.5-0.3-0.7-0.6s-0.1-0.6,0-0.9c0.1-0.3,0.3-0.5,0.6-0.7c0.3-0.1,0.6-0.2,0.9-0.1c0.3,0.1,0.5,0.3,0.7,0.6
	c0.1,0.3,0.1,0.6,0,0.9C115.8,121.8,115.6,122,115.3,122.1z M128.4,130.3c-0.9,0.4-1.8,0.6-2.7,0.5c-0.9-0.1-1.7-0.5-2.4-1.1
	c-0.7-0.6-1.3-1.4-1.8-2.4c-0.5-1-0.7-2-0.7-2.9c0-0.9,0.2-1.8,0.7-2.5c0.5-0.8,1.1-1.3,2-1.8c0.7-0.3,1.4-0.5,2.1-0.5
	c0.7,0,1.3,0.1,1.9,0.4c0.6,0.3,1.1,0.7,1.4,1.3l-1.5,0.7c-0.3-0.4-0.8-0.7-1.3-0.8c-0.6-0.2-1.2-0.1-1.8,0.2
	c-0.6,0.3-1,0.7-1.3,1.2c-0.3,0.5-0.4,1.1-0.4,1.8c0,0.7,0.2,1.4,0.6,2.1c0.4,0.8,0.8,1.4,1.3,1.8c0.5,0.4,1.1,0.7,1.7,0.8
	c0.6,0.1,1.2,0,1.8-0.3c0.4-0.2,0.7-0.4,1-0.7c0.3-0.3,0.4-0.6,0.5-1c0.1-0.4,0.1-0.7,0-1.1l1.5-0.7c0.2,0.6,0.2,1.2,0.1,1.9
	c-0.1,0.6-0.4,1.2-0.8,1.7C129.7,129.5,129.1,129.9,128.4,130.3z M137.4,126c-0.6,0.3-1.2,0.4-1.9,0.5c-0.6,0-1.2-0.2-1.7-0.5
	c-0.5-0.3-0.9-0.8-1.2-1.4c-0.3-0.6-0.4-1.1-0.3-1.5c0.1-0.5,0.2-0.9,0.5-1.3c0.3-0.4,0.6-0.7,1-1c0.4-0.3,0.8-0.6,1.2-0.9
	c0.6-0.4,1-0.6,1.4-0.9c0.4-0.2,0.6-0.4,0.7-0.6c0.1-0.2,0.1-0.4,0-0.6l0-0.1c-0.3-0.6-0.7-1-1.2-1.2c-0.5-0.2-1.1-0.1-1.8,0.2
	c-0.7,0.3-1.2,0.8-1.5,1.3c-0.3,0.5-0.4,1-0.4,1.4l-1.7,0.2c0-0.7,0.1-1.3,0.4-1.9c0.3-0.5,0.6-1,1.1-1.4c0.4-0.4,0.9-0.7,1.4-0.9
	c0.3-0.1,0.7-0.3,1.1-0.4c0.4-0.1,0.9-0.2,1.4-0.1c0.5,0,1,0.2,1.5,0.6c0.5,0.3,0.9,0.9,1.3,1.7l3.1,6.5l-1.5,0.7l-0.6-1.3l-0.1,0
	c0,0.3-0.1,0.6-0.2,0.9c-0.1,0.4-0.3,0.7-0.7,1.1C138.4,125.4,138,125.8,137.4,126z M137,124.6c0.6-0.3,1-0.6,1.3-1.1
	c0.3-0.4,0.5-0.9,0.5-1.4c0-0.5,0-0.9-0.2-1.3l-0.7-1.4c0,0.1-0.1,0.2-0.3,0.4c-0.2,0.2-0.4,0.3-0.7,0.5c-0.3,0.2-0.5,0.3-0.8,0.5
	c-0.2,0.2-0.4,0.3-0.6,0.4c-0.4,0.2-0.7,0.5-1,0.8c-0.3,0.3-0.5,0.6-0.6,0.9c-0.1,0.3-0.1,0.7,0.1,1.1c0.2,0.5,0.6,0.8,1.1,0.9
	C135.8,125,136.4,124.8,137,124.6z M144.2,110.5l0.6,1.3l-5.1,2.4l-0.6-1.3L144.2,110.5z M139.4,109.8l1.5-0.7l4.5,9.4
	c0.2,0.4,0.4,0.7,0.6,0.9c0.2,0.1,0.5,0.2,0.7,0.2c0.2,0,0.5-0.1,0.7-0.2c0.2-0.1,0.3-0.2,0.4-0.2c0.1-0.1,0.2-0.1,0.2-0.2l1,1.2
	c-0.1,0.1-0.2,0.2-0.4,0.3c-0.2,0.1-0.4,0.3-0.7,0.4c-0.4,0.2-0.9,0.3-1.4,0.3c-0.5,0-1-0.1-1.4-0.4c-0.4-0.3-0.8-0.7-1.1-1.2
	L139.4,109.8z M151.1,119.2l-4.7-9.9l1.5-0.7l4.7,9.9L151.1,119.2z M146.4,107.4c-0.3,0.1-0.6,0.2-0.9,0.1c-0.3-0.1-0.5-0.3-0.7-0.6
	c-0.1-0.3-0.1-0.6,0-0.9c0.1-0.3,0.3-0.5,0.6-0.7s0.6-0.2,0.9-0.1c0.3,0.1,0.5,0.3,0.7,0.6c0.1,0.3,0.1,0.6,0,0.9
	C146.9,107,146.7,107.2,146.4,107.4z M159.5,115.5c-0.9,0.4-1.8,0.6-2.6,0.5c-0.9-0.1-1.7-0.5-2.4-1c-0.7-0.6-1.3-1.4-1.8-2.4
	c-0.5-1-0.7-2-0.7-3c0-0.9,0.3-1.8,0.7-2.5c0.5-0.7,1.2-1.3,2-1.7c0.9-0.4,1.8-0.6,2.6-0.5c0.9,0.1,1.7,0.5,2.4,1
	c0.7,0.6,1.4,1.4,1.8,2.4c0.5,1,0.7,2,0.7,2.9c0,0.9-0.3,1.8-0.7,2.5C161.1,114.5,160.4,115.1,159.5,115.5z M158.9,114.1
	c0.7-0.3,1.1-0.8,1.4-1.3c0.3-0.6,0.4-1.2,0.3-1.8s-0.2-1.3-0.6-2c-0.3-0.7-0.7-1.2-1.2-1.7c-0.5-0.5-1-0.8-1.6-0.9
	c-0.6-0.1-1.2-0.1-1.9,0.3c-0.7,0.3-1.1,0.8-1.4,1.3c-0.3,0.6-0.4,1.2-0.3,1.8c0.1,0.7,0.2,1.3,0.6,2c0.3,0.7,0.7,1.2,1.2,1.7
	c0.5,0.5,1,0.8,1.6,0.9C157.5,114.5,158.2,114.5,158.9,114.1z M164.9,105.4l2.8,5.9l-1.5,0.7l-4.7-9.9l1.5-0.7l0.7,1.5l0.1-0.1
	c0-0.6,0.2-1.2,0.5-1.7c0.3-0.5,0.9-1,1.6-1.3c0.7-0.3,1.3-0.5,1.9-0.4c0.6,0,1.2,0.3,1.8,0.7c0.5,0.4,1,1,1.4,1.9l3,6.3l-1.5,0.7
	l-2.9-6.2c-0.4-0.8-0.9-1.3-1.5-1.5c-0.6-0.2-1.3-0.2-2,0.1c-0.5,0.2-0.9,0.5-1.1,0.9c-0.3,0.4-0.4,0.8-0.5,1.3
	C164.5,104.3,164.6,104.9,164.9,105.4z"/>
<path class="st1" d="M17.7,142.7l151.8-72.1c14.5-6.9,31.8-0.7,38.6,13.8l0,0c6.9,14.5,0.7,31.8-13.8,38.6L42.6,195.1
	C28.2,202,10.9,195.8,4,181.4l0,0C-2.9,166.9,3.3,149.6,17.7,142.7z"/>
<path class="st0" d="M163.5,178.2l-1.7,0.3c-0.2-0.5-0.4-0.9-0.8-1.2c-0.3-0.3-0.7-0.6-1.1-0.8c-0.4-0.2-0.8-0.3-1.3-0.4
	s-0.9,0-1.4,0c-0.9,0.1-1.6,0.5-2.2,1.1c-0.6,0.6-1.1,1.3-1.3,2.2c-0.3,0.9-0.3,2-0.1,3.2c0.2,1.2,0.6,2.3,1.2,3
	c0.6,0.8,1.2,1.3,2,1.7c0.8,0.3,1.6,0.4,2.5,0.3c0.5-0.1,0.9-0.2,1.3-0.4c0.4-0.2,0.8-0.5,1.1-0.8c0.3-0.3,0.6-0.7,0.8-1.1
	c0.2-0.4,0.3-0.9,0.3-1.4l1.7-0.3c0,0.8-0.1,1.5-0.4,2.1c-0.2,0.6-0.6,1.2-1,1.7c-0.4,0.5-1,0.9-1.6,1.2c-0.6,0.3-1.3,0.5-2,0.7
	c-1.2,0.2-2.4,0.1-3.4-0.3s-1.9-1.2-2.7-2.2c-0.7-1-1.2-2.3-1.5-3.8c-0.3-1.5-0.2-2.9,0.1-4.1c0.4-1.2,1-2.2,1.8-2.9
	c0.8-0.8,1.9-1.2,3.1-1.5c0.7-0.1,1.4-0.1,2.1,0c0.7,0.1,1.3,0.3,1.9,0.6c0.6,0.3,1.1,0.7,1.5,1.2
	C162.9,176.8,163.2,177.4,163.5,178.2z M172.1,187c-1,0.2-1.9,0.1-2.7-0.3c-0.8-0.3-1.5-0.9-2-1.6c-0.5-0.8-0.9-1.7-1.1-2.8
	c-0.2-1.1-0.2-2.1,0.1-3c0.3-0.9,0.7-1.7,1.4-2.2c0.7-0.6,1.5-1,2.4-1.1c1-0.2,1.9-0.1,2.7,0.3c0.8,0.3,1.5,0.9,2,1.7
	c0.6,0.8,0.9,1.7,1.1,2.8c0.2,1.1,0.2,2.1-0.1,3c-0.3,0.9-0.7,1.6-1.4,2.2C173.9,186.5,173.1,186.9,172.1,187z M171.9,185.6
	c0.7-0.1,1.3-0.4,1.7-0.9c0.4-0.5,0.7-1,0.8-1.7c0.1-0.7,0.1-1.3,0-2.1c-0.1-0.7-0.4-1.4-0.7-2c-0.3-0.6-0.8-1-1.3-1.3
	c-0.5-0.3-1.2-0.4-1.9-0.3c-0.7,0.1-1.3,0.4-1.7,0.9c-0.4,0.5-0.7,1-0.8,1.7c-0.1,0.7-0.1,1.4,0,2.1c0.1,0.7,0.4,1.4,0.7,1.9
	c0.3,0.6,0.8,1,1.3,1.3C170.5,185.6,171.1,185.7,171.9,185.6z M178.7,170.9l2.4,14.3l-1.7,0.3l-2.4-14.3L178.7,170.9z M183.4,170.1
	l2.4,14.3l-1.7,0.3l-2.4-14.3L183.4,170.1z M192.1,183.7c-0.7,0.1-1.3,0.1-1.9-0.1c-0.6-0.2-1.1-0.5-1.5-0.9c-0.4-0.4-0.7-1-0.8-1.7
	c-0.1-0.6-0.1-1.1,0.1-1.6c0.2-0.4,0.4-0.8,0.8-1.1c0.4-0.3,0.8-0.5,1.3-0.7c0.5-0.2,1-0.4,1.4-0.5c0.6-0.2,1.2-0.3,1.6-0.5
	c0.4-0.1,0.7-0.2,0.9-0.4c0.2-0.1,0.2-0.3,0.2-0.6l0-0.1c-0.1-0.7-0.4-1.2-0.8-1.5c-0.4-0.3-1-0.4-1.8-0.3c-0.8,0.1-1.4,0.4-1.8,0.8
	c-0.4,0.4-0.6,0.8-0.8,1.3l-1.7-0.3c0.2-0.7,0.5-1.3,0.9-1.7c0.4-0.4,0.9-0.8,1.4-1c0.5-0.2,1.1-0.4,1.6-0.5
	c0.3-0.1,0.7-0.1,1.2-0.1c0.5,0,0.9,0.1,1.4,0.3c0.5,0.2,0.9,0.5,1.3,1c0.4,0.5,0.6,1.1,0.8,2l1.2,7.1l-1.7,0.3l-0.2-1.5l-0.1,0
	c-0.1,0.3-0.2,0.5-0.4,0.8c-0.2,0.3-0.5,0.6-0.9,0.9C193.2,183.4,192.7,183.6,192.1,183.7z M192,182.1c0.7-0.1,1.2-0.3,1.6-0.7
	c0.4-0.3,0.7-0.7,0.9-1.2c0.2-0.4,0.2-0.9,0.1-1.3l-0.3-1.5c-0.1,0.1-0.2,0.2-0.4,0.3c-0.2,0.1-0.5,0.2-0.8,0.3
	c-0.3,0.1-0.6,0.2-0.9,0.3c-0.3,0.1-0.5,0.1-0.7,0.2c-0.4,0.1-0.8,0.3-1.2,0.5c-0.3,0.2-0.6,0.4-0.8,0.7c-0.2,0.3-0.2,0.6-0.2,1.1
	c0.1,0.6,0.4,1,0.9,1.2C190.8,182.2,191.4,182.3,192,182.1z M200.2,182l-2.4-14.3l1.7-0.3l0.9,5.3l0.1,0c0.1-0.2,0.2-0.5,0.4-0.8
	c0.2-0.3,0.4-0.6,0.8-0.9c0.4-0.3,0.9-0.5,1.6-0.6c0.9-0.2,1.7-0.1,2.5,0.3c0.8,0.3,1.4,0.9,1.9,1.6c0.5,0.8,0.9,1.7,1.1,2.8
	c0.2,1.1,0.2,2.2-0.1,3.1c-0.2,0.9-0.7,1.6-1.3,2.2c-0.6,0.6-1.4,0.9-2.3,1.1c-0.7,0.1-1.3,0.1-1.7-0.1c-0.5-0.2-0.8-0.4-1.1-0.6
	c-0.3-0.3-0.5-0.5-0.6-0.7l-0.2,0l0.3,1.7L200.2,182z M200.9,176.4c0.1,0.8,0.4,1.5,0.7,2.1c0.3,0.6,0.8,1,1.3,1.3
	c0.5,0.3,1.1,0.3,1.8,0.2c0.7-0.1,1.2-0.4,1.6-0.8c0.4-0.4,0.7-1,0.8-1.7c0.1-0.7,0.1-1.4,0-2.1c-0.1-0.8-0.4-1.4-0.7-2
	c-0.3-0.6-0.8-1-1.3-1.3c-0.5-0.3-1.1-0.4-1.8-0.2c-0.7,0.1-1.2,0.4-1.6,0.8c-0.4,0.4-0.7,0.9-0.8,1.6
	C200.7,174.8,200.7,175.6,200.9,176.4z M216.6,179.5c-1,0.2-1.9,0.1-2.7-0.3c-0.8-0.3-1.5-0.9-2-1.6c-0.5-0.8-0.9-1.7-1.1-2.8
	c-0.2-1.1-0.2-2.1,0.1-3c0.3-0.9,0.7-1.7,1.4-2.2c0.7-0.6,1.5-1,2.4-1.1c1-0.2,1.9-0.1,2.7,0.3c0.8,0.3,1.5,0.9,2,1.7
	c0.6,0.8,0.9,1.7,1.1,2.8c0.2,1.1,0.2,2.1-0.1,3c-0.3,0.9-0.7,1.6-1.4,2.2C218.4,178.9,217.6,179.3,216.6,179.5z M216.4,178
	c0.7-0.1,1.3-0.4,1.7-0.9c0.4-0.5,0.7-1,0.8-1.7c0.1-0.7,0.1-1.3,0-2.1c-0.1-0.7-0.4-1.4-0.7-2c-0.3-0.6-0.8-1-1.3-1.3
	c-0.5-0.3-1.2-0.4-1.9-0.3c-0.7,0.1-1.3,0.4-1.7,0.9c-0.4,0.5-0.7,1-0.8,1.7c-0.1,0.7-0.1,1.3,0,2.1c0.1,0.7,0.4,1.4,0.7,1.9
	c0.3,0.6,0.8,1,1.3,1.3S215.6,178.1,216.4,178z M224,178l-1.8-10.8l1.6-0.3l0.3,1.6l0.1,0c0.1-0.6,0.4-1.1,0.8-1.5
	c0.5-0.4,1-0.7,1.7-0.8c0.1,0,0.3,0,0.5-0.1c0.2,0,0.3,0,0.4,0l0.3,1.7c-0.1,0-0.2,0-0.4,0c-0.2,0-0.4,0-0.6,0.1
	c-0.5,0.1-1,0.3-1.3,0.6c-0.4,0.3-0.6,0.6-0.8,1.1c-0.2,0.4-0.2,0.9-0.1,1.4l1.2,6.8L224,178z M234.5,176.4
	c-0.7,0.1-1.3,0.1-1.9-0.1c-0.6-0.2-1.1-0.5-1.5-0.9c-0.4-0.4-0.7-1-0.8-1.7c-0.1-0.6-0.1-1.1,0.1-1.6c0.2-0.4,0.4-0.8,0.8-1.1
	c0.4-0.3,0.8-0.5,1.3-0.7c0.5-0.2,1-0.4,1.4-0.5c0.6-0.2,1.2-0.3,1.6-0.5c0.4-0.1,0.7-0.2,0.9-0.4c0.2-0.1,0.2-0.3,0.2-0.6l0-0.1
	c-0.1-0.7-0.4-1.2-0.8-1.5c-0.4-0.3-1-0.4-1.8-0.3c-0.8,0.1-1.4,0.4-1.8,0.8c-0.4,0.4-0.6,0.8-0.8,1.3l-1.7-0.3
	c0.2-0.7,0.5-1.3,0.9-1.7c0.4-0.4,0.9-0.8,1.4-1c0.5-0.2,1.1-0.4,1.6-0.5c0.3-0.1,0.7-0.1,1.2-0.1c0.5,0,0.9,0.1,1.4,0.3
	c0.5,0.2,0.9,0.5,1.3,1s0.6,1.1,0.8,2l1.2,7.1l-1.7,0.3l-0.2-1.5l-0.1,0c-0.1,0.3-0.2,0.5-0.4,0.8c-0.2,0.3-0.5,0.6-0.9,0.9
	C235.6,176.1,235.1,176.3,234.5,176.4z M234.5,174.9c0.7-0.1,1.2-0.3,1.6-0.7c0.4-0.3,0.7-0.7,0.9-1.2c0.2-0.4,0.2-0.9,0.1-1.3
	l-0.3-1.5c-0.1,0.1-0.2,0.2-0.4,0.3c-0.2,0.1-0.5,0.2-0.8,0.3c-0.3,0.1-0.6,0.2-0.9,0.3c-0.3,0.1-0.5,0.1-0.7,0.2
	c-0.4,0.1-0.8,0.3-1.2,0.5c-0.3,0.2-0.6,0.4-0.8,0.7c-0.2,0.3-0.2,0.6-0.2,1.1c0.1,0.6,0.4,1,0.9,1.2
	C233.3,175,233.8,175,234.5,174.9z M245.2,163.3l0.2,1.4l-5.6,1l-0.2-1.4L245.2,163.3z M240.9,161.4l1.7-0.3l1.8,10.2
	c0.1,0.5,0.2,0.8,0.4,1c0.2,0.2,0.4,0.3,0.6,0.4c0.2,0,0.5,0,0.7,0c0.2,0,0.3-0.1,0.4-0.1c0.1,0,0.2-0.1,0.3-0.1l0.6,1.4
	c-0.1,0.1-0.3,0.1-0.4,0.2c-0.2,0.1-0.4,0.1-0.8,0.2c-0.5,0.1-0.9,0.1-1.4-0.1c-0.5-0.1-0.9-0.4-1.3-0.7c-0.4-0.4-0.6-0.9-0.7-1.5
	L240.9,161.4z M249.6,173.6l-1.8-10.8l1.7-0.3l1.8,10.8L249.6,173.6z M248.3,160.9c-0.3,0.1-0.6,0-0.9-0.2c-0.3-0.2-0.4-0.4-0.5-0.7
	c-0.1-0.3,0-0.6,0.2-0.8c0.2-0.3,0.5-0.4,0.8-0.5c0.3-0.1,0.6,0,0.9,0.2c0.3,0.2,0.4,0.4,0.5,0.7s0,0.6-0.2,0.9
	C248.8,160.7,248.6,160.9,248.3,160.9z M258.7,172.3c-1,0.2-1.9,0.1-2.7-0.3c-0.8-0.3-1.5-0.9-2-1.6c-0.5-0.8-0.9-1.7-1.1-2.8
	c-0.2-1.1-0.2-2.1,0.1-3c0.3-0.9,0.7-1.7,1.4-2.2c0.7-0.6,1.5-1,2.4-1.1c1-0.2,1.9-0.1,2.7,0.3c0.8,0.3,1.5,0.9,2,1.7
	c0.6,0.8,0.9,1.7,1.1,2.8c0.2,1.1,0.1,2.1-0.1,3c-0.3,0.9-0.7,1.6-1.4,2.2C260.4,171.7,259.6,172.1,258.7,172.3z M258.4,170.8
	c0.7-0.1,1.3-0.4,1.7-0.9c0.4-0.5,0.7-1,0.8-1.7c0.1-0.7,0.1-1.3,0-2.1c-0.1-0.7-0.4-1.4-0.7-2c-0.3-0.6-0.8-1-1.3-1.3
	c-0.5-0.3-1.2-0.4-1.9-0.3c-0.7,0.1-1.3,0.4-1.7,0.9c-0.4,0.5-0.7,1-0.8,1.7c-0.1,0.7-0.1,1.3,0,2.1c0.1,0.7,0.4,1.4,0.7,1.9
	c0.3,0.6,0.8,1,1.3,1.3C257,170.8,257.7,170.9,258.4,170.8z M266.6,164l1.1,6.5l-1.7,0.3l-1.8-10.8l1.6-0.3l0.3,1.7l0.1,0
	c0.2-0.6,0.5-1.1,0.9-1.5c0.5-0.4,1.1-0.7,1.9-0.8c0.7-0.1,1.4-0.1,2,0.1c0.6,0.2,1.1,0.6,1.5,1.1c0.4,0.5,0.7,1.3,0.8,2.2l1.2,6.8
	l-1.7,0.3l-1.1-6.7c-0.1-0.8-0.5-1.5-1-1.9c-0.5-0.4-1.2-0.5-1.9-0.4c-0.5,0.1-1,0.3-1.4,0.6c-0.4,0.3-0.6,0.7-0.8,1.2
	C266.5,162.9,266.5,163.4,266.6,164z"/>
<path class="st1" d="M136,156.5l143.9-24.6c15.8-2.7,30.8,7.9,33.5,23.7l0,0c2.7,15.8-7.9,30.8-23.7,33.5l-143.9,24.6
	c-15.8,2.7-30.8-7.9-33.5-23.7l0,0C109.6,174.1,120.2,159.2,136,156.5z"/>
<path class="st0" d="M397.9,92.7l-9-11.5l6.9-5.4l1,1.2l-5.5,4.3l3,3.9l5.2-4l1,1.2l-5.2,4l3,3.9l5.6-4.4l1,1.2L397.9,92.7z
	 M407.1,85.4l-6.7-8.6l1.3-1l1,1.3l0.1-0.1c-0.2-0.6-0.2-1.2,0-1.7c0.2-0.6,0.6-1.1,1.1-1.5c0.6-0.4,1.1-0.7,1.7-0.7
	c0.6,0,1.2,0.1,1.7,0.4l0.1-0.1c-0.1-0.6-0.1-1.2,0.2-1.8c0.2-0.6,0.7-1.2,1.3-1.6c0.8-0.6,1.6-0.9,2.5-0.8c0.9,0.1,1.7,0.6,2.5,1.7
	l4.5,5.8l-1.3,1l-4.5-5.8c-0.5-0.6-1-1-1.6-1c-0.6,0-1.1,0.2-1.5,0.5c-0.6,0.5-0.9,1-1,1.6c-0.1,0.6,0.1,1.2,0.6,1.8l4.4,5.6l-1.3,1
	l-4.6-5.9c-0.4-0.5-0.8-0.8-1.4-0.8c-0.6-0.1-1.1,0.1-1.6,0.5c-0.3,0.3-0.6,0.6-0.7,1c-0.2,0.4-0.2,0.9-0.1,1.3
	c0.1,0.5,0.3,0.9,0.6,1.3l4.2,5.4L407.1,85.4z M423.4,78l-9.2-11.8l1.3-1l1.1,1.4l0.2-0.1c0-0.2,0-0.5,0-0.9c0-0.4,0.1-0.8,0.3-1.2
	c0.2-0.4,0.6-0.9,1.1-1.3c0.7-0.6,1.5-0.9,2.3-1c0.8-0.1,1.7,0.1,2.5,0.5c0.8,0.4,1.6,1.1,2.3,2c0.7,0.9,1.2,1.8,1.4,2.7
	c0.2,0.9,0.2,1.8-0.1,2.6c-0.3,0.8-0.8,1.5-1.5,2c-0.6,0.4-1.1,0.7-1.5,0.8c-0.5,0.1-0.9,0.1-1.3,0c-0.4-0.1-0.7-0.2-0.9-0.3
	l-0.1,0.1l3.5,4.5L423.4,78z M418.8,69.4c0.5,0.6,1,1.1,1.6,1.5c0.6,0.3,1.2,0.5,1.7,0.5c0.6,0,1.1-0.2,1.7-0.6
	c0.6-0.4,0.9-0.9,1-1.5c0.1-0.6,0.1-1.2-0.1-1.8c-0.2-0.6-0.5-1.3-1-1.9c-0.5-0.6-1-1.1-1.6-1.4c-0.6-0.3-1.1-0.5-1.7-0.5
	c-0.6,0-1.2,0.2-1.7,0.7c-0.5,0.4-0.9,0.9-1,1.5c-0.2,0.6-0.1,1.1,0.1,1.8C417.9,68.2,418.3,68.8,418.8,69.4z M433.1,65.5
	c-0.5,0.4-1.1,0.7-1.7,0.9c-0.6,0.1-1.2,0.1-1.8-0.1c-0.6-0.2-1.1-0.6-1.5-1.1c-0.4-0.5-0.6-1-0.6-1.4c0-0.5,0-0.9,0.2-1.3
	c0.2-0.4,0.4-0.8,0.8-1.2c0.3-0.4,0.7-0.8,1-1.1c0.5-0.5,0.9-0.9,1.2-1.1c0.3-0.3,0.5-0.5,0.6-0.7c0.1-0.2,0-0.4-0.1-0.6l0,0
	c-0.4-0.6-0.9-0.9-1.5-0.9c-0.5-0.1-1.1,0.1-1.7,0.6c-0.6,0.5-1,1-1.2,1.6c-0.1,0.6-0.2,1-0.1,1.5l-1.6,0.5
	c-0.2-0.7-0.2-1.3-0.1-1.9c0.1-0.6,0.4-1.1,0.8-1.6c0.4-0.5,0.7-0.9,1.2-1.2c0.3-0.2,0.6-0.4,1-0.6c0.4-0.2,0.9-0.4,1.4-0.4
	c0.5-0.1,1,0,1.6,0.3c0.5,0.2,1.1,0.7,1.6,1.4l4.4,5.7l-1.3,1l-0.9-1.2l-0.1,0.1c0.1,0.3,0.1,0.6,0,0.9s-0.2,0.8-0.4,1.2
	C434,64.7,433.6,65.1,433.1,65.5z M432.4,64.1c0.5-0.4,0.9-0.9,1.1-1.3c0.2-0.5,0.3-1,0.2-1.4c-0.1-0.5-0.2-0.9-0.5-1.2l-0.9-1.2
	c0,0.1-0.1,0.3-0.2,0.5c-0.1,0.2-0.3,0.4-0.5,0.6c-0.2,0.2-0.4,0.4-0.6,0.7c-0.2,0.2-0.4,0.4-0.5,0.5c-0.3,0.3-0.6,0.6-0.8,1
	c-0.2,0.3-0.3,0.7-0.4,1c0,0.3,0.1,0.7,0.4,1c0.4,0.5,0.8,0.7,1.3,0.6C431.4,64.8,431.9,64.5,432.4,64.1z M436.4,48.8l0.9,1.1
	l-4.5,3.5l-0.9-1.1L436.4,48.8z M431.6,49.2l1.3-1l6.4,8.2c0.3,0.4,0.6,0.6,0.8,0.7c0.3,0.1,0.5,0.1,0.7,0c0.2-0.1,0.4-0.2,0.6-0.3
	c0.1-0.1,0.3-0.2,0.3-0.3c0.1-0.1,0.1-0.2,0.2-0.2l1.2,1c-0.1,0.1-0.2,0.2-0.3,0.4c-0.1,0.2-0.3,0.3-0.6,0.5
	c-0.4,0.3-0.8,0.5-1.3,0.6c-0.5,0.1-1,0.1-1.5,0c-0.5-0.1-0.9-0.5-1.3-1L431.6,49.2z M442.5,49.5l4,5.2l-1.3,1l-9-11.5l1.3-1
	l3.3,4.2l0.1-0.1c-0.1-0.6-0.1-1.2,0.1-1.8c0.2-0.6,0.6-1.1,1.3-1.7c0.6-0.5,1.2-0.7,1.8-0.8c0.6-0.1,1.2,0,1.9,0.3
	c0.6,0.3,1.2,0.8,1.8,1.5l4.3,5.5l-1.3,1l-4.2-5.4c-0.5-0.7-1.1-1.1-1.8-1.2c-0.6-0.1-1.3,0.1-1.9,0.6c-0.4,0.3-0.7,0.7-1,1.2
	c-0.2,0.4-0.3,0.9-0.2,1.4C441.9,48.5,442.1,49,442.5,49.5z M457.6,51.2c-0.2,0.2-0.4,0.3-0.6,0.4c-0.2,0.1-0.3,0.2-0.4,0.2
	l-0.6-1.4c0.4-0.2,0.7-0.4,0.9-0.6c0.2-0.2,0.4-0.5,0.4-0.8c0-0.3,0-0.8-0.2-1.4l-0.3-0.9l-9.9-6.2l1.4-1.1l7.7,5l0.1-0.1l-3-8.7
	l1.4-1.1l4,12.7c0.2,0.6,0.3,1.1,0.3,1.6c0,0.5-0.1,0.9-0.3,1.3C458.3,50.5,458,50.9,457.6,51.2z"/>
<path class="st1" d="M366.5,71.5l81.2-63.4c12.6-9.9,30.8-7.6,40.7,5l0,0c9.9,12.6,7.6,30.8-5,40.7l-81.2,63.4
	c-12.6,9.9-30.8,7.6-40.7-5l0,0C351.6,99.6,353.8,81.4,366.5,71.5z"/>
<path class="st0" d="M239.9,64.5l-1.6-14.5l1.8-0.2l1.4,12.9l6.7-0.7l0.2,1.6L239.9,64.5z M255.4,63.1c-1,0.1-2,0-2.8-0.4
	c-0.8-0.4-1.5-1-2-1.8c-0.5-0.8-0.8-1.7-0.9-2.9c-0.1-1.1,0-2.1,0.3-3c0.3-0.9,0.8-1.6,1.5-2.2c0.7-0.6,1.5-0.9,2.5-1
	c0.6-0.1,1.1,0,1.7,0.1c0.6,0.1,1.1,0.4,1.6,0.8c0.5,0.4,0.9,0.9,1.3,1.5c0.3,0.7,0.6,1.5,0.7,2.5l0.1,0.7l-8.4,0.9l-0.2-1.4
	l6.7-0.7c-0.1-0.6-0.2-1.1-0.5-1.6c-0.3-0.5-0.7-0.8-1.2-1c-0.5-0.2-1-0.3-1.6-0.2c-0.7,0.1-1.2,0.3-1.7,0.7c-0.4,0.4-0.8,0.8-1,1.4
	c-0.2,0.6-0.3,1.1-0.2,1.7l0.1,1c0.1,0.8,0.3,1.5,0.7,2c0.3,0.5,0.8,0.9,1.3,1.2c0.5,0.2,1.1,0.3,1.8,0.2c0.4,0,0.8-0.2,1.2-0.3
	c0.3-0.2,0.6-0.4,0.9-0.7c0.2-0.3,0.4-0.6,0.5-1l1.7,0.3c-0.1,0.6-0.3,1.1-0.7,1.5c-0.4,0.5-0.8,0.8-1.4,1.1
	C256.8,62.8,256.1,63,255.4,63.1z M265.6,62c-0.7,0.1-1.3,0-1.9-0.2c-0.6-0.2-1.1-0.5-1.5-1c-0.4-0.5-0.6-1-0.7-1.8
	c-0.1-0.6,0-1.1,0.2-1.6c0.2-0.4,0.5-0.8,0.9-1c0.4-0.3,0.8-0.5,1.3-0.6c0.5-0.2,1-0.3,1.5-0.4c0.6-0.2,1.2-0.3,1.6-0.4
	c0.4-0.1,0.7-0.2,0.9-0.3c0.2-0.1,0.3-0.3,0.2-0.6l0-0.1c-0.1-0.7-0.3-1.2-0.7-1.6c-0.4-0.3-1-0.5-1.8-0.4c-0.8,0.1-1.4,0.3-1.8,0.7
	c-0.4,0.4-0.7,0.8-0.8,1.2l-1.6-0.4c0.2-0.7,0.5-1.2,1-1.7c0.4-0.4,0.9-0.7,1.5-0.9c0.5-0.2,1.1-0.3,1.6-0.4c0.3,0,0.8,0,1.2,0
	c0.5,0,0.9,0.1,1.4,0.4c0.5,0.2,0.9,0.6,1.2,1c0.3,0.5,0.6,1.2,0.6,2l0.8,7.1l-1.7,0.2l-0.2-1.5l-0.1,0c-0.1,0.2-0.2,0.5-0.5,0.8
	c-0.2,0.3-0.6,0.6-1,0.8C266.8,61.8,266.2,61.9,265.6,62z M265.7,60.5c0.7-0.1,1.2-0.3,1.6-0.6c0.4-0.3,0.7-0.7,0.9-1.1
	c0.2-0.4,0.3-0.9,0.2-1.3l-0.2-1.5c-0.1,0.1-0.2,0.2-0.4,0.3c-0.2,0.1-0.5,0.2-0.8,0.3c-0.3,0.1-0.6,0.2-0.9,0.2
	c-0.3,0.1-0.5,0.1-0.7,0.2c-0.4,0.1-0.8,0.2-1.2,0.4c-0.4,0.2-0.6,0.4-0.8,0.7c-0.2,0.3-0.3,0.6-0.2,1c0.1,0.6,0.3,1,0.8,1.2
	C264.5,60.5,265,60.5,265.7,60.5z M277.7,60.6c-0.9,0.1-1.7,0-2.5-0.4c-0.7-0.4-1.4-1-1.8-1.8c-0.5-0.8-0.8-1.8-0.9-2.9
	c-0.1-1.1,0-2.1,0.3-3c0.3-0.9,0.8-1.6,1.4-2.1c0.6-0.5,1.4-0.8,2.3-0.9c0.7-0.1,1.3,0,1.7,0.2c0.4,0.2,0.8,0.4,1,0.7
	c0.3,0.3,0.5,0.5,0.6,0.7l0.1,0l-0.6-5.3l1.7-0.2l1.6,14.5l-1.6,0.2l-0.2-1.7l-0.2,0c-0.1,0.2-0.2,0.5-0.4,0.8
	c-0.2,0.3-0.5,0.6-0.9,0.9C279,60.4,278.4,60.6,277.7,60.6z M277.8,59.1c0.7-0.1,1.2-0.3,1.6-0.7c0.4-0.4,0.7-0.9,0.9-1.6
	c0.2-0.7,0.2-1.4,0.1-2.2c-0.1-0.8-0.3-1.5-0.6-2.1c-0.3-0.6-0.7-1-1.2-1.3c-0.5-0.3-1.1-0.4-1.8-0.3c-0.7,0.1-1.3,0.3-1.7,0.7
	c-0.4,0.4-0.7,0.9-0.9,1.6c-0.2,0.6-0.2,1.3-0.1,2.1c0.1,0.8,0.3,1.5,0.6,2.1c0.3,0.6,0.7,1.1,1.2,1.4
	C276.5,59.1,277.1,59.2,277.8,59.1z M290.5,59.2c-1,0.1-2,0-2.8-0.4c-0.8-0.4-1.5-1-2-1.8c-0.5-0.8-0.8-1.7-0.9-2.9
	c-0.1-1.1,0-2.1,0.3-3c0.3-0.9,0.8-1.6,1.5-2.2c0.7-0.6,1.5-0.9,2.5-1c0.6-0.1,1.1,0,1.7,0.1c0.6,0.1,1.1,0.4,1.6,0.8
	c0.5,0.4,0.9,0.9,1.3,1.5c0.3,0.7,0.6,1.5,0.7,2.5l0.1,0.7l-8.4,0.9l-0.2-1.4l6.7-0.7c-0.1-0.6-0.2-1.1-0.5-1.6
	c-0.3-0.5-0.7-0.8-1.2-1c-0.5-0.2-1-0.3-1.6-0.2c-0.7,0.1-1.2,0.3-1.7,0.7c-0.4,0.4-0.8,0.8-1,1.4c-0.2,0.6-0.3,1.1-0.2,1.7l0.1,1
	c0.1,0.8,0.3,1.5,0.7,2c0.3,0.5,0.8,0.9,1.3,1.2c0.5,0.2,1.1,0.3,1.8,0.2c0.4,0,0.8-0.2,1.2-0.3c0.3-0.2,0.6-0.4,0.9-0.7
	c0.2-0.3,0.4-0.6,0.5-1l1.7,0.3c-0.1,0.6-0.3,1.1-0.7,1.5c-0.4,0.5-0.8,0.8-1.4,1.1C291.9,59,291.2,59.2,290.5,59.2z M297.5,58.3
	l-1.2-10.8l1.6-0.2l0.2,1.6l0.1,0c0.1-0.6,0.4-1,0.9-1.4c0.5-0.4,1-0.6,1.7-0.7c0.1,0,0.3,0,0.5,0c0.2,0,0.3,0,0.4,0l0.2,1.7
	c-0.1,0-0.2,0-0.4,0c-0.2,0-0.4,0-0.6,0c-0.5,0.1-1,0.2-1.4,0.5c-0.4,0.3-0.7,0.6-0.9,1c-0.2,0.4-0.3,0.9-0.2,1.3l0.7,6.9
	L297.5,58.3z M311.7,48.2l-1.5,0.6c-0.1-0.2-0.3-0.5-0.5-0.7c-0.2-0.2-0.5-0.4-0.8-0.5c-0.3-0.1-0.7-0.2-1.2-0.1
	c-0.7,0.1-1.2,0.3-1.6,0.6c-0.4,0.3-0.6,0.8-0.5,1.2c0,0.4,0.2,0.7,0.6,0.9c0.3,0.2,0.8,0.4,1.5,0.4l1.7,0.2c1,0.1,1.8,0.4,2.3,0.8
	c0.5,0.4,0.8,1,0.9,1.8c0.1,0.6-0.1,1.2-0.4,1.7c-0.3,0.5-0.8,1-1.4,1.3c-0.6,0.4-1.3,0.6-2.2,0.7c-1.1,0.1-2,0-2.8-0.4
	c-0.8-0.4-1.3-1.1-1.6-2l1.5-0.6c0.2,0.6,0.5,1,1,1.2c0.5,0.2,1,0.3,1.7,0.3c0.8-0.1,1.4-0.3,1.8-0.7c0.4-0.4,0.6-0.8,0.6-1.3
	c0-0.4-0.2-0.7-0.5-0.9c-0.3-0.2-0.7-0.4-1.3-0.4l-1.9-0.2c-1-0.1-1.8-0.4-2.3-0.9c-0.5-0.4-0.8-1-0.9-1.8c-0.1-0.6,0-1.2,0.3-1.7
	c0.3-0.5,0.7-0.9,1.3-1.3c0.6-0.3,1.2-0.5,2-0.6c1.1-0.1,1.9,0,2.6,0.4C310.8,46.9,311.3,47.4,311.7,48.2z M316.2,49.6l0.7,6.5
	l-1.7,0.2l-1.6-14.5l1.7-0.2L316,47l0.1,0c0.2-0.6,0.5-1.1,1-1.5c0.5-0.4,1.1-0.6,2-0.7c0.7-0.1,1.4,0,2,0.2
	c0.6,0.2,1.1,0.6,1.4,1.2c0.4,0.6,0.6,1.3,0.7,2.3l0.8,6.9l-1.7,0.2l-0.7-6.8c-0.1-0.9-0.4-1.5-0.9-1.9c-0.5-0.4-1.1-0.6-1.9-0.5
	c-0.5,0.1-1,0.2-1.4,0.5c-0.4,0.3-0.7,0.7-0.9,1.1C316.2,48.4,316.2,49,316.2,49.6z M327,55l-1.2-10.8l1.7-0.2l1.2,10.8L327,55z
	 M326.5,42.3c-0.3,0-0.6,0-0.9-0.2c-0.3-0.2-0.4-0.4-0.4-0.8c0-0.3,0.1-0.6,0.3-0.8c0.2-0.2,0.5-0.4,0.8-0.4c0.3,0,0.6,0,0.9,0.2
	c0.3,0.2,0.4,0.4,0.4,0.8c0,0.3-0.1,0.6-0.3,0.8C327.1,42.1,326.8,42.2,326.5,42.3z M332.2,58.6l-1.6-14.9l1.6-0.2l0.2,1.7l0.2,0
	c0.1-0.2,0.2-0.5,0.4-0.8c0.2-0.3,0.5-0.6,0.9-0.9c0.4-0.3,0.9-0.5,1.6-0.5c0.9-0.1,1.7,0,2.5,0.4c0.7,0.4,1.4,1,1.8,1.8
	c0.5,0.8,0.8,1.8,0.9,2.9c0.1,1.1,0,2.2-0.3,3.1c-0.3,0.9-0.8,1.6-1.4,2.1c-0.6,0.5-1.4,0.8-2.3,0.9c-0.7,0.1-1.3,0-1.7-0.2
	c-0.4-0.2-0.8-0.4-1.1-0.7c-0.3-0.3-0.5-0.5-0.6-0.7l-0.1,0l0.6,5.7L332.2,58.6z M332.8,48.9c0.1,0.8,0.3,1.5,0.6,2.1
	c0.3,0.6,0.7,1,1.2,1.3c0.5,0.3,1.1,0.4,1.8,0.3c0.7-0.1,1.3-0.3,1.7-0.7c0.4-0.4,0.7-1,0.9-1.6c0.2-0.7,0.2-1.4,0.1-2.1
	c-0.1-0.8-0.3-1.4-0.6-2c-0.3-0.6-0.7-1-1.2-1.3c-0.5-0.3-1.1-0.4-1.8-0.4c-0.7,0.1-1.2,0.3-1.7,0.7c-0.4,0.4-0.7,0.9-0.9,1.5
	C332.8,47.4,332.7,48.1,332.8,48.9z"/>
<path class="st1" d="M224.3,30l124.3-13.6c15.9-1.7,30.2,9.8,32,25.7l0,0c1.7,15.9-9.8,30.2-25.7,32L230.6,87.7
	c-15.9,1.7-30.2-9.8-32-25.7l0,0C196.8,46.1,208.3,31.8,224.3,30z"/>
</svg>
