<svg width="518" height="306" viewBox="0 0 518 306" fill="none" xmlns="http://www.w3.org/2000/svg">
<path d="M340.411 125.95L341.516 124.845L349.23 132.559L348.125 133.664L344.891 130.43L335.71 139.61L334.465 138.364L343.645 129.184L340.411 125.95ZM340.706 144.606L348.42 136.892L349.605 138.077L341.891 145.791L340.706 144.606ZM350.308 136.209C350.077 135.978 349.957 135.7 349.947 135.375C349.94 135.054 350.047 134.782 350.268 134.561C350.489 134.34 350.76 134.233 351.082 134.24C351.406 134.25 351.684 134.371 351.915 134.602C352.146 134.833 352.265 135.109 352.272 135.43C352.282 135.755 352.176 136.028 351.955 136.249C351.734 136.47 351.462 136.575 351.137 136.565C350.815 136.559 350.539 136.44 350.308 136.209ZM344.062 147.962L351.776 140.248L352.921 141.393L351.716 142.598L351.816 142.698C352.389 142.447 352.968 142.387 353.554 142.518C354.143 142.645 354.689 142.96 355.191 143.462C355.7 143.971 356.008 144.51 356.115 145.079C356.229 145.648 356.175 146.234 355.954 146.837L356.035 146.917C356.631 146.716 357.243 146.696 357.873 146.857C358.505 147.014 359.098 147.369 359.651 147.921C360.34 148.611 360.688 149.391 360.695 150.262C360.705 151.129 360.257 152.016 359.349 152.923L354.187 158.086L353.001 156.901L358.164 151.738C358.733 151.169 358.984 150.607 358.917 150.051C358.85 149.495 358.606 149.006 358.184 148.584C357.642 148.042 357.057 147.786 356.431 147.816C355.809 147.843 355.248 148.106 354.749 148.604L349.727 153.626L348.522 152.421L353.805 147.138C354.243 146.699 354.454 146.204 354.438 145.651C354.424 145.096 354.193 144.593 353.745 144.145C353.437 143.837 353.067 143.631 352.635 143.527C352.206 143.427 351.764 143.44 351.309 143.567C350.86 143.695 350.447 143.947 350.068 144.326L345.247 149.147L344.062 147.962ZM359.427 163.648C358.684 162.905 358.207 162.1 357.996 161.232C357.792 160.365 357.84 159.49 358.141 158.606C358.449 157.722 358.998 156.885 359.789 156.095C360.579 155.305 361.419 154.752 362.31 154.438C363.207 154.123 364.084 154.056 364.941 154.237C365.805 154.417 366.585 154.856 367.282 155.552C367.683 155.954 368.013 156.418 368.271 156.944C368.529 157.469 368.668 158.043 368.688 158.666C368.711 159.286 368.572 159.937 368.271 160.62C367.97 161.303 367.459 162.004 366.739 162.724L366.237 163.226L360.291 157.28L361.315 156.256L366.056 160.996C366.491 160.561 366.793 160.086 366.96 159.57C367.131 159.058 367.156 158.544 367.035 158.028C366.918 157.516 366.645 157.046 366.217 156.617C365.745 156.145 365.219 155.854 364.64 155.743C364.067 155.633 363.503 155.671 362.948 155.859C362.392 156.046 361.901 156.353 361.476 156.778L360.793 157.461C360.21 158.043 359.817 158.638 359.613 159.244C359.415 159.85 359.392 160.439 359.543 161.011C359.697 161.581 360.013 162.105 360.492 162.583C360.803 162.895 361.128 163.132 361.466 163.296C361.811 163.461 362.164 163.546 362.526 163.553C362.891 163.556 363.257 163.474 363.625 163.307L364.449 164.773C363.94 165.041 363.396 165.18 362.817 165.19C362.241 165.196 361.662 165.073 361.079 164.818C360.5 164.56 359.949 164.17 359.427 163.648ZM379.008 162.337L380.495 163.824L375.452 175.857L375.573 175.977L387.606 170.935L389.092 172.422L378.807 182.707L377.642 181.542L385.456 173.727L385.356 173.627L374.328 178.227L373.203 177.102L377.803 166.074L377.702 165.973L369.888 173.788L368.723 172.622L379.008 162.337ZM383.233 187.494C382.744 187.005 382.393 186.47 382.178 185.887C381.967 185.301 381.92 184.715 382.038 184.129C382.158 183.54 382.47 182.994 382.972 182.492C383.414 182.05 383.859 181.779 384.308 181.678C384.76 181.575 385.21 181.59 385.659 181.724C386.107 181.858 386.546 182.062 386.974 182.336C387.41 182.611 387.83 182.904 388.235 183.215C388.764 183.624 389.189 183.959 389.51 184.22C389.839 184.481 390.108 184.64 390.319 184.697C390.533 184.757 390.736 184.692 390.927 184.501L390.967 184.461C391.462 183.965 391.712 183.445 391.715 182.899C391.722 182.356 391.452 181.812 390.907 181.267C390.341 180.701 389.773 180.381 389.204 180.307C388.635 180.234 388.144 180.272 387.733 180.423L387.009 178.896C387.679 178.628 388.312 178.531 388.908 178.605C389.51 178.679 390.063 178.863 390.565 179.157C391.074 179.452 391.523 179.794 391.911 180.182C392.159 180.43 392.413 180.744 392.674 181.126C392.942 181.508 393.136 181.94 393.257 182.422C393.381 182.907 393.361 183.433 393.197 183.999C393.033 184.564 392.644 185.154 392.032 185.766L386.949 190.849L385.764 189.664L386.809 188.619L386.748 188.559C386.501 188.646 386.188 188.691 385.809 188.694C385.431 188.698 385.019 188.611 384.574 188.433C384.128 188.256 383.682 187.943 383.233 187.494ZM384.478 186.61C384.947 187.079 385.434 187.382 385.94 187.519C386.449 187.66 386.931 187.666 387.386 187.539C387.845 187.415 388.235 187.193 388.556 186.871L389.641 185.787C389.531 185.797 389.365 185.741 389.144 185.621C388.93 185.5 388.694 185.348 388.436 185.164C388.185 184.98 387.942 184.797 387.708 184.616C387.48 184.436 387.294 184.29 387.15 184.179C386.802 183.912 386.449 183.689 386.09 183.512C385.739 183.334 385.392 183.252 385.051 183.265C384.716 183.279 384.398 183.436 384.097 183.738C383.685 184.149 383.526 184.613 383.62 185.129C383.72 185.644 384.006 186.138 384.478 186.61ZM394.938 189.557L390.298 194.197L389.112 193.012L396.826 185.298L397.971 186.443L396.766 187.648L396.867 187.749C397.439 187.538 398.028 187.498 398.634 187.628C399.244 187.756 399.84 188.11 400.422 188.693C400.944 189.215 401.294 189.779 401.472 190.385C401.653 190.988 401.636 191.614 401.422 192.264C401.211 192.91 400.777 193.561 400.121 194.217L395.219 199.119L394.034 197.934L398.855 193.112C399.461 192.506 399.776 191.877 399.799 191.224C399.826 190.568 399.565 189.965 399.016 189.416C398.638 189.038 398.217 188.782 397.755 188.648C397.297 188.517 396.825 188.524 396.339 188.668C395.854 188.812 395.387 189.108 394.938 189.557ZM399.474 203.735C398.985 203.247 398.634 202.711 398.42 202.128C398.209 201.542 398.162 200.957 398.279 200.371C398.4 199.781 398.711 199.236 399.213 198.733C399.655 198.291 400.1 198.02 400.549 197.92C401.001 197.816 401.451 197.831 401.9 197.965C402.349 198.099 402.787 198.303 403.216 198.578C403.651 198.852 404.071 199.145 404.476 199.457C405.005 199.865 405.43 200.2 405.752 200.461C406.08 200.722 406.349 200.881 406.56 200.938C406.775 200.998 406.977 200.933 407.168 200.742L407.208 200.702C407.704 200.207 407.953 199.686 407.957 199.14C407.963 198.598 407.694 198.054 407.148 197.508C406.582 196.942 406.015 196.622 405.445 196.549C404.876 196.475 404.386 196.514 403.974 196.664L403.251 195.138C403.92 194.87 404.553 194.773 405.149 194.846C405.752 194.92 406.304 195.104 406.806 195.399C407.315 195.693 407.764 196.035 408.152 196.423C408.4 196.671 408.655 196.986 408.916 197.367C409.184 197.749 409.378 198.181 409.498 198.663C409.622 199.149 409.602 199.674 409.438 200.24C409.274 200.806 408.886 201.395 408.273 202.008L403.191 207.09L402.005 205.905L403.05 204.86L402.99 204.8C402.742 204.887 402.429 204.932 402.051 204.936C401.672 204.939 401.26 204.852 400.815 204.675C400.37 204.497 399.923 204.184 399.474 203.735ZM400.72 202.852C401.188 203.32 401.676 203.623 402.181 203.761C402.69 203.901 403.172 203.908 403.627 203.781C404.086 203.657 404.476 203.434 404.798 203.113L405.882 202.028C405.772 202.038 405.606 201.983 405.385 201.862C405.171 201.742 404.935 201.589 404.677 201.405C404.426 201.221 404.183 201.039 403.949 200.858C403.721 200.677 403.535 200.531 403.391 200.421C403.043 200.153 402.69 199.93 402.332 199.753C401.98 199.575 401.634 199.493 401.292 199.507C400.957 199.52 400.639 199.678 400.338 199.979C399.926 200.391 399.767 200.854 399.861 201.37C399.961 201.886 400.248 202.379 400.72 202.852ZM405.414 215.42C404.842 214.848 404.423 214.282 404.159 213.723C403.891 213.167 403.738 212.633 403.702 212.121C403.665 211.615 403.7 211.148 403.807 210.72L405.414 211.001C405.381 211.249 405.356 211.545 405.339 211.89C405.319 212.238 405.384 212.622 405.535 213.04C405.685 213.465 405.993 213.911 406.459 214.376C407.081 214.999 407.746 215.362 408.452 215.466C409.159 215.569 409.834 215.3 410.476 214.657L412.043 213.09L411.943 212.99C411.715 213.043 411.417 213.094 411.049 213.14C410.687 213.187 410.277 213.142 409.818 213.005C409.366 212.868 408.889 212.548 408.387 212.046C407.764 211.423 407.353 210.716 407.152 209.926C406.954 209.14 406.993 208.321 407.267 207.471C407.545 206.624 408.086 205.798 408.889 204.995C409.679 204.205 410.506 203.655 411.37 203.347C412.237 203.036 413.079 202.967 413.896 203.142C414.717 203.312 415.452 203.722 416.101 204.372C416.603 204.874 416.918 205.356 417.045 205.818C417.179 206.28 417.219 206.695 417.166 207.064C417.119 207.432 417.072 207.727 417.025 207.948L417.146 208.068L418.371 206.843L419.516 207.988L411.581 215.923C410.918 216.586 410.229 216.974 409.512 217.088C408.796 217.208 408.088 217.113 407.388 216.802C406.688 216.497 406.03 216.037 405.414 215.42ZM409.613 211.142C410.088 211.617 410.599 211.91 411.144 212.021C411.69 212.131 412.252 212.067 412.832 211.83C413.411 211.592 413.985 211.189 414.554 210.619C415.11 210.064 415.517 209.489 415.775 208.897C416.032 208.304 416.118 207.723 416.031 207.154C415.944 206.585 415.659 206.059 415.177 205.577C414.675 205.075 414.129 204.784 413.54 204.703C412.954 204.626 412.363 204.718 411.767 204.98C411.174 205.244 410.617 205.638 410.095 206.16C409.559 206.695 409.169 207.253 408.925 207.832C408.687 208.411 408.616 208.984 408.714 209.55C408.817 210.116 409.117 210.646 409.613 211.142ZM417.045 221.266C416.302 220.523 415.825 219.718 415.614 218.851C415.41 217.983 415.458 217.108 415.76 216.224C416.068 215.34 416.617 214.503 417.407 213.713C418.197 212.923 419.037 212.37 419.928 212.056C420.825 211.741 421.702 211.674 422.559 211.855C423.423 212.036 424.203 212.474 424.9 213.171C425.301 213.572 425.631 214.036 425.889 214.562C426.147 215.087 426.286 215.662 426.306 216.284C426.329 216.904 426.19 217.555 425.889 218.238C425.588 218.921 425.077 219.622 424.357 220.342L423.855 220.844L417.909 214.898L418.933 213.874L423.674 218.615C424.11 218.179 424.411 217.704 424.578 217.188C424.749 216.676 424.774 216.162 424.654 215.646C424.536 215.134 424.264 214.664 423.835 214.235C423.363 213.763 422.837 213.472 422.258 213.361C421.686 213.251 421.121 213.289 420.566 213.477C420.01 213.664 419.519 213.971 419.094 214.396L418.411 215.079C417.829 215.662 417.435 216.256 417.231 216.862C417.033 217.468 417.01 218.057 417.161 218.63C417.315 219.199 417.631 219.723 418.11 220.201C418.421 220.513 418.746 220.751 419.084 220.915C419.429 221.079 419.782 221.164 420.144 221.171C420.509 221.174 420.875 221.092 421.244 220.925L422.067 222.391C421.558 222.659 421.014 222.798 420.435 222.808C419.859 222.815 419.28 222.691 418.697 222.436C418.118 222.179 417.567 221.788 417.045 221.266ZM422.203 226.102L429.917 218.389L431.062 219.534L429.856 220.739L429.957 220.839C430.529 220.588 431.109 220.528 431.695 220.658C432.284 220.786 432.83 221.1 433.332 221.603C433.841 222.112 434.149 222.651 434.256 223.22C434.37 223.789 434.316 224.375 434.095 224.977L434.175 225.058C434.771 224.857 435.384 224.837 436.014 224.998C436.646 225.155 437.239 225.51 437.791 226.062C438.481 226.752 438.829 227.532 438.836 228.403C438.846 229.27 438.397 230.157 437.49 231.064L432.327 236.227L431.142 235.042L436.305 229.879C436.874 229.31 437.125 228.747 437.058 228.192C436.991 227.636 436.747 227.147 436.325 226.725C435.783 226.183 435.198 225.927 434.572 225.957C433.949 225.984 433.389 226.246 432.89 226.745L427.868 231.767L426.662 230.562L431.946 225.279C432.384 224.84 432.595 224.345 432.578 223.792C432.565 223.236 432.334 222.734 431.885 222.286C431.577 221.978 431.207 221.772 430.776 221.668C430.347 221.567 429.905 221.581 429.45 221.708C429.001 221.835 428.588 222.088 428.209 222.466L423.388 227.288L422.203 226.102ZM437.568 241.789C436.825 241.046 436.348 240.24 436.137 239.373C435.932 238.506 435.981 237.631 436.282 236.747C436.59 235.863 437.139 235.026 437.929 234.236C438.72 233.446 439.56 232.893 440.451 232.578C441.348 232.264 442.225 232.197 443.082 232.377C443.946 232.558 444.726 232.997 445.422 233.693C445.824 234.095 446.154 234.559 446.412 235.084C446.67 235.61 446.808 236.184 446.829 236.807C446.852 237.426 446.713 238.078 446.412 238.761C446.11 239.444 445.6 240.145 444.88 240.865L444.378 241.367L438.432 235.421L439.456 234.396L444.197 239.137C444.632 238.702 444.934 238.227 445.101 237.711C445.272 237.199 445.297 236.685 445.176 236.169C445.059 235.657 444.786 235.186 444.358 234.758C443.886 234.286 443.36 233.995 442.781 233.884C442.208 233.774 441.644 233.812 441.088 234C440.533 234.187 440.042 234.493 439.617 234.919L438.934 235.602C438.351 236.184 437.958 236.778 437.754 237.384C437.556 237.99 437.533 238.58 437.683 239.152C437.837 239.721 438.154 240.245 438.633 240.724C438.944 241.036 439.269 241.273 439.607 241.437C439.952 241.601 440.305 241.687 440.666 241.693C441.031 241.697 441.398 241.615 441.766 241.447L442.59 242.914C442.081 243.182 441.537 243.321 440.958 243.331C440.382 243.337 439.803 243.213 439.22 242.959C438.641 242.701 438.09 242.311 437.568 241.789ZM448.551 243.17L443.911 247.81L442.726 246.625L450.439 238.911L451.584 240.056L450.379 241.262L450.48 241.362C451.052 241.151 451.641 241.111 452.247 241.241C452.857 241.369 453.453 241.724 454.035 242.306C454.558 242.828 454.907 243.393 455.085 243.999C455.266 244.601 455.249 245.227 455.035 245.877C454.824 246.523 454.39 247.174 453.734 247.83L448.832 252.732L447.647 251.547L452.468 246.726C453.074 246.12 453.389 245.49 453.412 244.837C453.439 244.181 453.178 243.578 452.629 243.029C452.251 242.651 451.831 242.395 451.368 242.261C450.91 242.13 450.438 242.137 449.952 242.281C449.467 242.425 449 242.721 448.551 243.17ZM462.067 250.539L461.062 251.543L457.065 247.545L458.069 246.541L462.067 250.539ZM461.082 245.858L462.268 247.043L454.915 254.395C454.581 254.73 454.378 255.03 454.308 255.294C454.244 255.559 454.261 255.797 454.358 256.008C454.462 256.218 454.601 256.411 454.775 256.585C454.905 256.716 455.019 256.816 455.116 256.886C455.217 256.953 455.297 257.007 455.357 257.047L454.534 258.353C454.423 258.303 454.281 258.221 454.107 258.107C453.929 257.996 453.73 257.831 453.509 257.61C453.174 257.275 452.918 256.875 452.741 256.409C452.567 255.947 452.521 255.464 452.605 254.958C452.692 254.456 452.96 253.98 453.409 253.532L461.082 245.858Z" fill="#A583C0"/>
<rect x="328.426" y="81.4142" width="255" height="58" rx="29" transform="rotate(45 328.426 81.4142)" stroke="#A583C0" stroke-width="2"/>
<rect x="215.221" y="248.335" width="173.903" height="58" rx="29" transform="rotate(-14.6947 215.221 248.335)" fill="#D1BAE7"/>
<path d="M274.938 259.553L273.234 260C273.005 259.537 272.715 259.152 272.366 258.847C272.022 258.541 271.638 258.309 271.214 258.151C270.794 257.987 270.352 257.897 269.888 257.882C269.424 257.867 268.958 257.92 268.491 258.043C267.639 258.266 266.924 258.684 266.345 259.296C265.771 259.906 265.39 260.684 265.203 261.629C265.019 262.573 265.087 263.654 265.407 264.872C265.726 266.091 266.198 267.066 266.82 267.798C267.448 268.53 268.162 269.02 268.961 269.271C269.766 269.52 270.594 269.533 271.446 269.309C271.913 269.187 272.345 269.005 272.742 268.764C273.139 268.523 273.481 268.23 273.767 267.886C274.057 267.535 274.277 267.142 274.427 266.707C274.581 266.265 274.644 265.788 274.618 265.276L276.321 264.83C276.382 265.582 276.317 266.287 276.127 266.944C275.937 267.601 275.642 268.194 275.243 268.725C274.842 269.251 274.355 269.699 273.782 270.07C273.213 270.439 272.574 270.717 271.864 270.903C270.664 271.218 269.52 271.205 268.432 270.863C267.344 270.522 266.39 269.881 265.571 268.941C264.752 268.001 264.147 266.789 263.758 265.305C263.369 263.821 263.301 262.468 263.553 261.247C263.805 260.025 264.322 258.999 265.103 258.168C265.883 257.336 266.873 256.764 268.073 256.449C268.783 256.263 269.477 256.191 270.154 256.234C270.835 256.275 271.48 256.429 272.088 256.696C272.695 256.957 273.243 257.328 273.731 257.807C274.217 258.281 274.62 258.863 274.938 259.553ZM280.008 268.562L277.24 258.01L278.807 257.599L279.225 259.193L279.335 259.164C279.39 258.591 279.627 258.076 280.046 257.619C280.464 257.162 280.989 256.85 281.621 256.685C281.74 256.653 281.89 256.617 282.07 256.574C282.25 256.532 282.386 256.504 282.48 256.489L282.913 258.137C282.854 258.138 282.723 258.151 282.519 258.175C282.318 258.193 282.11 258.231 281.895 258.287C281.382 258.422 280.952 258.649 280.605 258.97C280.262 259.285 280.023 259.661 279.888 260.098C279.756 260.529 279.753 260.983 279.878 261.459L281.629 268.137L280.008 268.562ZM291.366 265.818C290.35 266.085 289.414 266.09 288.559 265.835C287.707 265.574 286.976 265.09 286.364 264.384C285.757 263.672 285.311 262.775 285.028 261.695C284.744 260.614 284.691 259.609 284.869 258.682C285.05 257.748 285.435 256.957 286.024 256.308C286.616 255.654 287.388 255.202 288.341 254.952C288.89 254.808 289.457 254.757 290.041 254.8C290.625 254.842 291.191 255.012 291.738 255.309C292.285 255.601 292.777 256.05 293.215 256.655C293.652 257.26 294 258.054 294.258 259.039L294.439 259.726L286.304 261.859L285.937 260.458L292.422 258.757C292.266 258.161 292.008 257.661 291.647 257.257C291.291 256.851 290.86 256.57 290.354 256.414C289.853 256.256 289.309 256.255 288.722 256.408C288.077 256.578 287.56 256.885 287.172 257.329C286.788 257.767 286.537 258.274 286.418 258.848C286.299 259.423 286.316 260.001 286.469 260.582L286.714 261.517C286.923 262.314 287.238 262.953 287.658 263.435C288.081 263.912 288.578 264.229 289.148 264.388C289.717 264.542 290.329 264.533 290.984 264.362C291.41 264.25 291.779 264.09 292.092 263.88C292.407 263.666 292.659 263.404 292.848 263.095C293.035 262.781 293.149 262.424 293.19 262.021L294.872 262.05C294.846 262.625 294.692 263.164 294.408 263.67C294.123 264.17 293.724 264.608 293.21 264.982C292.696 265.352 292.081 265.631 291.366 265.818ZM301.314 263.239C300.646 263.414 300.006 263.447 299.395 263.338C298.783 263.225 298.253 262.97 297.806 262.573C297.358 262.171 297.044 261.627 296.864 260.94C296.706 260.336 296.696 259.814 296.836 259.376C296.974 258.934 297.215 258.553 297.557 258.233C297.899 257.913 298.296 257.637 298.75 257.406C299.206 257.169 299.671 256.954 300.144 256.761C300.764 256.511 301.268 256.312 301.655 256.167C302.046 256.015 302.32 255.863 302.475 255.709C302.635 255.555 302.681 255.347 302.613 255.086L302.598 255.031C302.42 254.353 302.097 253.875 301.627 253.597C301.162 253.317 300.557 253.275 299.81 253.471C299.036 253.674 298.474 254.003 298.123 254.457C297.772 254.911 297.558 255.354 297.48 255.786L295.797 255.64C295.904 254.926 296.139 254.331 296.504 253.854C296.871 253.371 297.309 252.987 297.817 252.702C298.328 252.411 298.849 252.196 299.381 252.057C299.719 251.968 300.12 251.907 300.581 251.874C301.046 251.835 301.516 251.886 301.993 252.025C302.475 252.163 302.919 252.446 303.325 252.873C303.73 253.3 304.043 253.933 304.263 254.771L306.086 261.723L304.465 262.148L304.09 260.719L304.008 260.741C303.958 260.999 303.839 261.292 303.651 261.62C303.463 261.948 303.18 262.26 302.802 262.555C302.424 262.85 301.928 263.078 301.314 263.239ZM301.18 261.717C301.821 261.549 302.328 261.282 302.702 260.914C303.08 260.546 303.329 260.133 303.449 259.676C303.574 259.217 303.578 258.768 303.463 258.329L303.074 256.845C303.027 256.945 302.895 257.06 302.68 257.19C302.468 257.314 302.217 257.441 301.928 257.571C301.642 257.695 301.362 257.812 301.088 257.923C300.817 258.029 300.597 258.116 300.429 258.184C300.023 258.35 299.652 258.542 299.318 258.762C298.987 258.976 298.742 259.234 298.581 259.535C298.424 259.831 298.399 260.185 298.507 260.597C298.655 261.161 298.975 261.532 299.467 261.711C299.963 261.885 300.534 261.887 301.18 261.717ZM310.867 249.191L311.227 250.565L305.759 251.999L305.399 250.625L310.867 249.191ZM306.329 247.679L307.951 247.254L310.588 257.312C310.708 257.77 310.865 258.096 311.058 258.29C311.254 258.478 311.468 258.584 311.699 258.606C311.933 258.623 312.17 258.6 312.408 258.538C312.586 258.491 312.731 258.444 312.84 258.395C312.949 258.342 313.036 258.3 313.101 258.268L313.812 259.638C313.713 259.708 313.571 259.79 313.384 259.882C313.2 259.98 312.956 260.068 312.654 260.148C312.196 260.268 311.721 260.287 311.23 260.205C310.743 260.122 310.302 259.917 309.908 259.59C309.519 259.261 309.243 258.79 309.082 258.177L306.329 247.679ZM316.073 259.104L313.306 248.552L314.927 248.126L317.695 258.679L316.073 259.104ZM313.669 246.577C313.353 246.66 313.052 246.623 312.767 246.468C312.486 246.312 312.306 246.083 312.227 245.78C312.147 245.478 312.192 245.19 312.36 244.916C312.532 244.64 312.777 244.461 313.093 244.378C313.409 244.296 313.707 244.332 313.988 244.489C314.273 244.644 314.456 244.873 314.535 245.175C314.614 245.477 314.568 245.766 314.395 246.041C314.227 246.315 313.985 246.494 313.669 246.577ZM326.525 245.085L325.391 256.66L323.742 257.093L317.072 247.564L318.831 247.103L323.949 254.748L324.059 254.719L324.767 245.546L326.525 245.085ZM331.433 255.076L328.665 244.524L330.287 244.099L333.054 254.651L331.433 255.076ZM329.029 242.549C328.713 242.632 328.412 242.596 328.126 242.44C327.846 242.284 327.666 242.055 327.586 241.752C327.507 241.45 327.551 241.162 327.719 240.888C327.892 240.612 328.136 240.433 328.452 240.35C328.768 240.268 329.067 240.304 329.347 240.461C329.633 240.616 329.815 240.845 329.895 241.147C329.974 241.449 329.927 241.738 329.755 242.013C329.587 242.287 329.345 242.466 329.029 242.549ZM337.845 242.116L338.206 243.49L332.737 244.924L332.377 243.55L337.845 242.116ZM333.308 240.604L334.929 240.179L337.567 250.237C337.687 250.695 337.843 251.021 338.036 251.215C338.232 251.403 338.446 251.509 338.677 251.531C338.912 251.548 339.148 251.525 339.386 251.463C339.565 251.416 339.709 251.369 339.819 251.32C339.927 251.267 340.014 251.225 340.079 251.193L340.791 252.563C340.692 252.633 340.549 252.715 340.363 252.808C340.178 252.905 339.934 252.993 339.632 253.073C339.174 253.193 338.699 253.212 338.208 253.13C337.721 253.047 337.281 252.842 336.887 252.515C336.497 252.186 336.222 251.715 336.061 251.102L333.308 240.604ZM345.134 255.712C344.859 255.784 344.608 255.826 344.38 255.836C344.154 255.852 343.995 255.849 343.901 255.83L343.939 254.293C344.359 254.29 344.717 254.236 345.012 254.129C345.307 254.022 345.54 253.817 345.709 253.513C345.885 253.212 346.001 252.768 346.058 252.18L346.144 251.277L339.46 241.693L341.219 241.232L346.337 248.877L346.447 248.848L347.154 239.675L348.913 239.214L347.605 252.48C347.546 253.078 347.415 253.594 347.211 254.029C347.008 254.469 346.732 254.828 346.384 255.105C346.04 255.381 345.624 255.584 345.134 255.712Z" fill="#8241A1"/>
<rect x="215.221" y="248.335" width="173.903" height="58" rx="29" transform="rotate(-14.6947 215.221 248.335)" stroke="#8241A1" stroke-width="2"/>
<path d="M71.2502 247.087L69.4449 246.698L77.7278 233.603L79.5052 233.985L81.6649 249.329L79.8597 248.94L78.1877 236.056L78.0766 236.032L71.2502 247.087ZM73.1126 241.676L80.3891 243.242L80.0602 244.77L72.7838 243.203L73.1126 241.676ZM87.6368 250.847C86.7481 250.656 86.0118 250.263 85.4281 249.667C84.8453 249.067 84.4505 248.314 84.2437 247.407C84.0379 246.496 84.0566 245.475 84.2998 244.346C84.541 243.226 84.9424 242.295 85.504 241.554C86.0655 240.813 86.7372 240.291 87.5189 239.99C88.3007 239.688 89.1405 239.634 90.0385 239.828C90.7328 239.977 91.2564 240.211 91.6093 240.529C91.9678 240.844 92.2221 241.17 92.3722 241.507C92.528 241.841 92.6461 242.113 92.7266 242.324L92.8655 242.354L93.9956 237.105L95.6342 237.458L92.5726 251.678L90.9896 251.337L91.3424 249.698L91.148 249.656C90.9858 249.825 90.7617 250.033 90.4757 250.282C90.1907 250.525 89.8174 250.719 89.3556 250.861C88.8948 251 88.3219 250.995 87.6368 250.847ZM88.1759 249.423C88.8332 249.565 89.4255 249.513 89.9529 249.268C90.4812 249.019 90.9292 248.614 91.2969 248.054C91.6655 247.489 91.9365 246.804 92.1099 245.998C92.2813 245.202 92.3156 244.481 92.2127 243.834C92.1108 243.182 91.869 242.641 91.4871 242.21C91.1062 241.775 90.5825 241.485 89.916 241.341C89.2217 241.192 88.6047 241.246 88.0651 241.502C87.5311 241.755 87.0831 242.16 86.7211 242.717C86.3647 243.27 86.1058 243.921 85.9444 244.671C85.7809 245.43 85.7482 246.145 85.846 246.815C85.9496 247.481 86.1911 248.047 86.5706 248.511C86.9557 248.972 87.4908 249.276 88.1759 249.423ZM98.8857 253.298C98.2099 253.153 97.624 252.894 97.128 252.52C96.633 252.143 96.2758 251.676 96.0564 251.12C95.838 250.56 95.8036 249.932 95.9531 249.238C96.0846 248.627 96.3116 248.158 96.634 247.83C96.9574 247.497 97.3439 247.266 97.7935 247.135C98.243 247.004 98.7223 246.938 99.2312 246.936C99.7458 246.931 100.258 246.949 100.767 246.991C101.433 247.047 101.972 247.097 102.383 247.142C102.801 247.184 103.113 247.171 103.321 247.105C103.534 247.039 103.669 246.874 103.726 246.611L103.738 246.555C103.885 245.87 103.812 245.297 103.519 244.837C103.23 244.378 102.709 244.067 101.954 243.904C101.172 243.736 100.522 243.775 100.004 244.022C99.4858 244.269 99.0946 244.567 98.8304 244.917L97.3947 244.027C97.812 243.439 98.2909 243.014 98.8315 242.752C99.3777 242.487 99.9417 242.343 100.523 242.318C101.111 242.289 101.673 242.333 102.21 242.448C102.552 242.522 102.937 242.648 103.363 242.827C103.795 243.003 104.193 243.26 104.556 243.6C104.923 243.941 105.191 244.393 105.36 244.957C105.529 245.522 105.523 246.227 105.34 247.074L103.827 254.101L102.189 253.748L102.5 252.304L102.417 252.286C102.256 252.494 102.017 252.701 101.701 252.909C101.385 253.117 100.992 253.268 100.522 253.36C100.051 253.453 99.5059 253.432 98.8857 253.298ZM99.4526 251.88C100.101 252.02 100.674 252.01 101.173 251.851C101.677 251.693 102.086 251.437 102.399 251.084C102.717 250.731 102.924 250.332 103.02 249.888L103.343 248.388C103.256 248.456 103.086 248.5 102.835 248.518C102.59 248.533 102.309 248.533 101.993 248.519C101.682 248.5 101.379 248.478 101.084 248.454C100.795 248.425 100.559 248.404 100.379 248.389C99.9408 248.353 99.5233 248.357 99.1261 248.403C98.7345 248.444 98.3989 248.563 98.1193 248.76C97.8453 248.953 97.6634 249.257 97.5737 249.674C97.4511 250.243 97.5691 250.719 97.9275 251.102C98.2915 251.48 98.7999 251.74 99.4526 251.88ZM105.957 258.744L109.114 244.08L110.697 244.421L110.333 246.115L110.527 246.157C110.687 245.998 110.905 245.798 111.18 245.556C111.46 245.312 111.826 245.119 112.277 244.979C112.735 244.835 113.31 244.838 114.005 244.988C114.903 245.181 115.646 245.576 116.234 246.172C116.823 246.769 117.22 247.521 117.427 248.427C117.634 249.334 117.616 250.347 117.375 251.467C117.132 252.597 116.729 253.534 116.167 254.28C115.605 255.021 114.935 255.546 114.157 255.853C113.38 256.155 112.547 256.211 111.658 256.019C110.973 255.872 110.449 255.64 110.086 255.325C109.724 255.005 109.463 254.675 109.304 254.336C109.145 253.991 109.027 253.709 108.949 253.489L108.81 253.459L107.596 259.097L105.957 258.744ZM109.577 249.759C109.404 250.565 109.369 251.301 109.472 251.967C109.577 252.629 109.819 253.182 110.197 253.627C110.577 254.067 111.096 254.358 111.753 254.5C112.438 254.647 113.049 254.59 113.585 254.327C114.126 254.061 114.579 253.645 114.943 253.08C115.313 252.51 115.579 251.846 115.743 251.087C115.904 250.337 115.934 249.636 115.832 248.985C115.736 248.329 115.494 247.776 115.107 247.325C114.725 246.87 114.188 246.567 113.493 246.418C112.827 246.274 112.23 246.323 111.704 246.563C111.178 246.798 110.735 247.192 110.374 247.744C110.014 248.291 109.749 248.963 109.577 249.759ZM125.667 247.644L125.368 249.033L119.841 247.843L120.14 246.454L125.667 247.644ZM122.301 244.246L123.94 244.599L121.751 254.763C121.652 255.226 121.644 255.588 121.728 255.848C121.818 256.105 121.961 256.296 122.157 256.42C122.359 256.541 122.58 256.627 122.821 256.679C123.001 256.718 123.151 256.741 123.271 256.747C123.392 256.749 123.488 256.75 123.561 256.751L123.577 258.295C123.457 258.313 123.293 258.321 123.085 258.32C122.876 258.323 122.619 258.292 122.313 258.226C121.85 258.127 121.418 257.929 121.017 257.635C120.62 257.341 120.319 256.959 120.116 256.489C119.916 256.02 119.883 255.475 120.017 254.855L122.301 244.246ZM128.92 259.765C128.244 259.62 127.658 259.36 127.162 258.987C126.667 258.609 126.31 258.142 126.091 257.587C125.872 257.026 125.838 256.399 125.987 255.705C126.119 255.094 126.346 254.624 126.668 254.296C126.992 253.964 127.378 253.732 127.828 253.602C128.277 253.471 128.757 253.404 129.266 253.403C129.78 253.397 130.292 253.415 130.801 253.457C131.467 253.513 132.006 253.564 132.418 253.609C132.835 253.651 133.148 253.638 133.356 253.571C133.569 253.506 133.703 253.341 133.76 253.077L133.772 253.022C133.92 252.337 133.847 251.764 133.553 251.304C133.265 250.844 132.743 250.533 131.989 250.371C131.207 250.203 130.556 250.242 130.038 250.489C129.52 250.735 129.129 251.034 128.865 251.384L127.429 250.494C127.846 249.905 128.325 249.48 128.866 249.219C129.412 248.954 129.976 248.809 130.558 248.784C131.145 248.756 131.707 248.799 132.244 248.915C132.587 248.989 132.971 249.115 133.398 249.294C133.83 249.469 134.227 249.727 134.59 250.066C134.957 250.407 135.226 250.86 135.395 251.424C135.564 251.988 135.557 252.694 135.375 253.541L133.862 260.568L132.223 260.215L132.534 258.771L132.451 258.753C132.29 258.96 132.052 259.168 131.736 259.376C131.419 259.584 131.026 259.734 130.556 259.827C130.086 259.919 129.54 259.899 128.92 259.765ZM129.487 258.347C130.135 258.486 130.709 258.477 131.208 258.318C131.712 258.16 132.12 257.904 132.434 257.55C132.752 257.197 132.959 256.799 133.054 256.354L133.377 254.855C133.29 254.923 133.121 254.966 132.87 254.985C132.624 255 132.343 255 132.027 254.985C131.716 254.967 131.413 254.945 131.118 254.92C130.829 254.892 130.594 254.87 130.413 254.856C129.975 254.82 129.558 254.824 129.16 254.869C128.769 254.911 128.433 255.03 128.154 255.226C127.88 255.419 127.698 255.724 127.608 256.141C127.486 256.71 127.603 257.186 127.962 257.568C128.326 257.947 128.834 258.206 129.487 258.347ZM137.075 261.259L140.136 247.04L141.775 247.392L140.645 252.642L140.784 252.671C140.944 252.512 141.161 252.312 141.436 252.071C141.716 251.826 142.082 251.634 142.534 251.494C142.991 251.35 143.567 251.353 144.261 251.502C145.159 251.696 145.902 252.09 146.491 252.687C147.079 253.283 147.477 254.035 147.683 254.942C147.89 255.848 147.873 256.862 147.632 257.982C147.389 259.111 146.986 260.049 146.423 260.795C145.862 261.536 145.192 262.06 144.414 262.367C143.637 262.67 142.804 262.725 141.915 262.534C141.23 262.386 140.706 262.155 140.343 261.839C139.981 261.519 139.72 261.189 139.56 260.85C139.402 260.506 139.284 260.224 139.205 260.003L139.011 259.962L138.658 261.6L137.075 261.259ZM139.834 256.274C139.66 257.079 139.625 257.815 139.729 258.482C139.833 259.143 140.075 259.697 140.454 260.142C140.834 260.582 141.352 260.873 142.01 261.014C142.695 261.162 143.305 261.104 143.841 260.842C144.383 260.576 144.836 260.16 145.2 259.594C145.569 259.025 145.836 258.36 145.999 257.601C146.161 256.851 146.19 256.151 146.089 255.499C145.992 254.844 145.751 254.291 145.364 253.839C144.982 253.384 144.444 253.082 143.75 252.932C143.083 252.789 142.487 252.837 141.96 253.077C141.435 253.313 140.992 253.707 140.631 254.259C140.271 254.806 140.005 255.478 139.834 256.274ZM148.996 263.826L151.292 253.161L152.931 253.514L150.635 264.179L148.996 263.826ZM152.508 251.563C152.189 251.495 151.937 251.326 151.752 251.059C151.572 250.793 151.515 250.507 151.581 250.201C151.647 249.896 151.817 249.659 152.09 249.49C152.368 249.322 152.667 249.273 152.987 249.341C153.306 249.41 153.556 249.578 153.736 249.844C153.92 250.112 153.98 250.398 153.914 250.704C153.848 251.009 153.676 251.246 153.398 251.413C153.124 251.582 152.828 251.632 152.508 251.563ZM158.336 250.958L155.275 265.178L153.636 264.825L156.698 250.605L158.336 250.958ZM158.276 265.824L160.572 255.159L162.211 255.512L159.914 266.177L158.276 265.824ZM161.788 253.561C161.468 253.492 161.216 253.324 161.032 253.057C160.852 252.791 160.795 252.505 160.861 252.199C160.926 251.894 161.096 251.657 161.37 251.488C161.648 251.32 161.947 251.271 162.266 251.339C162.586 251.408 162.835 251.576 163.015 251.842C163.2 252.11 163.259 252.396 163.193 252.701C163.128 253.007 162.956 253.244 162.677 253.411C162.404 253.58 162.107 253.63 161.788 253.561ZM169.85 257.157L169.551 258.546L164.024 257.356L164.323 255.967L169.85 257.157ZM166.484 253.759L168.123 254.111L165.934 264.276C165.834 264.739 165.827 265.101 165.911 265.361C166.001 265.618 166.144 265.808 166.34 265.933C166.542 266.054 166.763 266.14 167.004 266.192C167.184 266.231 167.334 266.254 167.454 266.26C167.575 266.262 167.671 266.263 167.744 266.264L167.76 267.808C167.64 267.826 167.476 267.834 167.268 267.833C167.059 267.836 166.802 267.805 166.496 267.739C166.033 267.64 165.601 267.442 165.2 267.148C164.803 266.854 164.502 266.472 164.298 266.002C164.099 265.533 164.066 264.988 164.2 264.368L166.484 253.759ZM170.213 272.579C169.935 272.519 169.692 272.443 169.485 272.349C169.276 272.261 169.135 272.187 169.06 272.127L169.788 270.773C170.164 270.96 170.508 271.073 170.819 271.111C171.131 271.149 171.431 271.071 171.72 270.876C172.012 270.687 172.316 270.344 172.632 269.845L173.117 269.078L171.481 257.508L173.259 257.891L174.373 267.023L174.484 267.047L179.258 259.183L181.035 259.565L173.877 270.81C173.555 271.317 173.205 271.719 172.826 272.015C172.446 272.316 172.039 272.512 171.603 272.602C171.171 272.693 170.708 272.685 170.213 272.579Z" fill="#A583C0"/>
<rect x="38.3961" y="203.188" width="191" height="58" rx="29" transform="rotate(12.1507 38.3961 203.188)" stroke="#A583C0" stroke-width="2"/>
<path d="M59.879 167.265L58.2879 168.021C57.9765 167.608 57.6209 167.284 57.2211 167.049C56.8256 166.813 56.4052 166.656 55.9599 166.579C55.5168 166.496 55.0658 166.49 54.6069 166.561C54.148 166.632 53.7004 166.771 53.2642 166.979C52.4686 167.357 51.8434 167.9 51.3886 168.609C50.9379 169.315 50.7082 170.15 50.6992 171.114C50.6946 172.075 50.9624 173.125 51.5027 174.263C52.0431 175.4 52.6873 176.271 53.4354 176.875C54.1877 177.477 54.9802 177.827 55.8127 177.924C56.6494 178.019 57.4656 177.878 58.2611 177.5C58.6974 177.293 59.0881 177.034 59.4332 176.723C59.7784 176.413 60.0598 176.061 60.2774 175.67C60.4972 175.272 60.6404 174.845 60.7068 174.389C60.7755 173.926 60.7492 173.446 60.628 172.948L62.219 172.192C62.4182 172.921 62.4854 173.625 62.4208 174.306C62.3562 174.986 62.177 175.625 61.8833 176.22C61.5875 176.811 61.1923 177.342 60.6978 177.813C60.2075 178.282 59.6309 178.674 58.968 178.988C57.8474 179.521 56.7209 179.72 55.5884 179.587C54.4559 179.454 53.3997 179.002 52.4199 178.23C51.4401 177.458 50.6212 176.38 49.963 174.994C49.3049 173.608 48.9863 172.292 49.0074 171.045C49.0284 169.798 49.3452 168.693 49.9577 167.731C50.5702 166.77 51.4367 166.022 52.5573 165.49C53.2202 165.175 53.8882 164.976 54.5613 164.892C55.2387 164.807 55.9009 164.838 56.5481 164.987C57.1933 165.131 57.8 165.393 58.3684 165.773C58.9348 166.149 59.4383 166.646 59.879 167.265ZM70.6355 173.479C69.7459 173.901 68.8648 174.06 67.9922 173.956C67.1239 173.849 66.3208 173.505 65.5829 172.922C64.8492 172.337 64.2406 171.536 63.7572 170.518C63.2697 169.492 63.0302 168.507 63.0387 167.565C63.0515 166.621 63.2909 165.778 63.757 165.038C64.2274 164.296 64.9074 163.713 65.797 163.291C66.6866 162.868 67.5656 162.71 68.4339 162.817C69.3065 162.921 70.1106 163.268 70.8463 163.857C71.5863 164.444 72.2 165.25 72.6876 166.277C73.171 167.295 73.4053 168.274 73.3905 169.214C73.38 170.152 73.1395 170.992 72.6691 171.734C72.203 172.475 71.5251 173.056 70.6355 173.479ZM69.9896 172.119C70.6653 171.798 71.1391 171.36 71.4108 170.807C71.6825 170.253 71.7891 169.644 71.7306 168.98C71.672 168.316 71.4863 167.655 71.1735 166.996C70.8607 166.337 70.4644 165.773 69.9847 165.304C69.5049 164.835 68.9637 164.528 68.3608 164.385C67.758 164.241 67.1187 164.33 66.443 164.651C65.7672 164.972 65.2945 165.411 65.0248 165.969C64.7551 166.527 64.6506 167.14 64.7111 167.809C64.7717 168.477 64.9584 169.141 65.2712 169.799C65.5841 170.458 65.9793 171.02 66.457 171.485C66.9347 171.95 67.474 172.252 68.0748 172.391C68.6755 172.53 69.3138 172.44 69.9896 172.119ZM77.3144 170.055L72.6343 160.201L74.0971 159.506L74.8283 161.046L74.9566 160.985C74.9121 160.361 75.0496 159.796 75.3691 159.287C75.6866 158.775 76.1661 158.366 76.8076 158.062C77.4577 157.753 78.0688 157.643 78.641 157.733C79.2154 157.817 79.7494 158.064 80.243 158.474L80.3457 158.426C80.3563 157.797 80.5428 157.213 80.9053 156.674C81.2658 156.13 81.7989 155.691 82.5046 155.356C83.3856 154.937 84.2373 154.871 85.0597 155.157C85.8799 155.438 86.5653 156.158 87.1158 157.317L90.248 163.912L88.734 164.632L85.6017 158.036C85.2564 157.309 84.8108 156.884 84.2647 156.761C83.7187 156.638 83.1762 156.704 82.6373 156.96C81.9444 157.289 81.5072 157.753 81.3256 158.353C81.142 158.949 81.2015 159.565 81.5042 160.203L84.5511 166.618L83.0114 167.349L79.806 160.6C79.5399 160.04 79.1438 159.675 78.6178 159.506C78.0897 159.332 77.5391 159.381 76.966 159.653C76.5725 159.84 76.2545 160.12 76.0118 160.492C75.7735 160.862 75.6379 161.283 75.605 161.754C75.5744 162.22 75.6739 162.694 75.9034 163.177L78.8285 169.336L77.3144 170.055ZM93.0163 162.598L88.3363 152.744L89.799 152.049L90.5303 153.589L90.6586 153.528C90.614 152.904 90.7515 152.338 91.071 151.83C91.3885 151.318 91.868 150.909 92.5095 150.604C93.1597 150.296 93.7708 150.186 94.3429 150.276C94.9173 150.36 95.4513 150.607 95.9449 151.017L96.0476 150.968C96.0582 150.339 96.2448 149.755 96.6073 149.216C96.9677 148.673 97.5008 148.234 98.2065 147.899C99.0876 147.48 99.9393 147.414 100.762 147.699C101.582 147.981 102.267 148.701 102.818 149.86L105.95 156.455L104.436 157.174L101.304 150.579C100.958 149.852 100.513 149.427 99.9666 149.304C99.4206 149.18 98.8781 149.247 98.3392 149.502C97.6463 149.832 97.2091 150.296 97.0275 150.896C96.8439 151.492 96.9034 152.108 97.2061 152.745L100.253 159.161L98.7133 159.892L95.5079 153.143C95.2418 152.583 94.8458 152.218 94.3197 152.048C93.7916 151.875 93.241 151.924 92.6679 152.196C92.2744 152.383 91.9564 152.662 91.7137 153.034C91.4754 153.404 91.3398 153.825 91.3069 154.297C91.2763 154.762 91.3758 155.237 91.6053 155.72L94.5304 161.879L93.0163 162.598ZM113.015 148.162L110.248 142.337L111.762 141.618L116.443 151.472L114.928 152.191L114.136 150.523L114.034 150.572C114.04 151.182 113.883 151.778 113.562 152.36C113.239 152.938 112.705 153.404 111.961 153.757C111.345 154.05 110.734 154.175 110.127 154.133C109.518 154.087 108.947 153.855 108.413 153.438C107.877 153.016 107.41 152.386 107.012 151.548L104.038 145.286L105.552 144.567L108.477 150.726C108.819 151.445 109.292 151.922 109.897 152.159C110.506 152.394 111.125 152.362 111.754 152.063C112.131 151.884 112.468 151.606 112.765 151.229C113.067 150.85 113.257 150.398 113.333 149.875C113.413 149.349 113.307 148.778 113.015 148.162ZM117.914 143.508L120.73 149.436L119.216 150.155L114.536 140.301L115.998 139.606L116.73 141.146L116.858 141.085C116.851 140.475 117.011 139.906 117.337 139.379C117.661 138.848 118.196 138.405 118.94 138.052C119.607 137.735 120.256 137.594 120.886 137.631C121.515 137.662 122.099 137.888 122.639 138.308C123.177 138.723 123.645 139.35 124.043 140.188L127.017 146.45L125.503 147.169L122.578 141.01C122.21 140.236 121.723 139.728 121.115 139.487C120.506 139.242 119.851 139.286 119.149 139.619C118.666 139.849 118.284 140.159 118.003 140.549C117.726 140.937 117.574 141.384 117.547 141.89C117.52 142.395 117.642 142.935 117.914 143.508ZM129.784 145.136L125.103 135.282L126.618 134.563L131.298 144.417L129.784 145.136ZM125.093 133.274C124.798 133.414 124.496 133.434 124.187 133.335C123.882 133.233 123.662 133.041 123.528 132.759C123.394 132.477 123.384 132.185 123.498 131.885C123.616 131.582 123.823 131.361 124.118 131.221C124.413 131.081 124.713 131.061 125.019 131.163C125.328 131.262 125.55 131.453 125.684 131.735C125.818 132.018 125.826 132.31 125.707 132.613C125.593 132.913 125.388 133.134 125.093 133.274ZM138.171 141.404C137.248 141.843 136.349 142.002 135.474 141.883C134.6 141.764 133.801 141.406 133.078 140.811C132.355 140.216 131.76 139.427 131.293 138.443C130.818 137.443 130.582 136.472 130.586 135.532C130.593 134.585 130.825 133.738 131.283 132.992C131.743 132.239 132.418 131.651 133.307 131.228C134 130.899 134.686 130.731 135.363 130.723C136.041 130.716 136.667 130.859 137.242 131.152C137.816 131.446 138.292 131.88 138.67 132.455L137.156 133.174C136.828 132.78 136.382 132.504 135.82 132.347C135.26 132.183 134.646 132.259 133.979 132.576C133.389 132.856 132.944 133.256 132.646 133.775C132.349 134.288 132.209 134.882 132.225 135.555C132.244 136.223 132.429 136.929 132.783 137.673C133.144 138.434 133.579 139.04 134.087 139.491C134.599 139.94 135.149 140.216 135.738 140.319C136.331 140.42 136.927 140.328 137.526 140.044C137.919 139.857 138.244 139.619 138.499 139.33C138.755 139.04 138.933 138.715 139.034 138.352C139.134 137.99 139.146 137.607 139.07 137.203L140.584 136.484C140.775 137.106 140.812 137.731 140.695 138.357C140.581 138.978 140.313 139.556 139.891 140.092C139.472 140.621 138.899 141.058 138.171 141.404ZM147.172 137.161C146.547 137.457 145.925 137.609 145.304 137.615C144.681 137.618 144.114 137.465 143.601 137.158C143.086 136.847 142.677 136.371 142.372 135.729C142.104 135.165 141.998 134.654 142.053 134.198C142.107 133.737 142.272 133.318 142.549 132.94C142.826 132.563 143.165 132.218 143.568 131.906C143.972 131.588 144.389 131.291 144.818 131.013C145.381 130.652 145.839 130.364 146.192 130.149C146.548 129.927 146.789 129.726 146.913 129.547C147.042 129.365 147.048 129.152 146.932 128.909L146.908 128.857C146.607 128.224 146.2 127.815 145.687 127.629C145.179 127.44 144.576 127.512 143.879 127.843C143.156 128.186 142.664 128.614 142.404 129.125C142.144 129.637 142.016 130.112 142.019 130.55L140.339 130.719C140.311 129.999 140.432 129.37 140.701 128.833C140.972 128.29 141.331 127.832 141.777 127.457C142.225 127.077 142.697 126.769 143.194 126.533C143.51 126.383 143.892 126.248 144.339 126.13C144.788 126.006 145.26 125.968 145.755 126.016C146.254 126.062 146.742 126.257 147.22 126.602C147.698 126.946 148.123 127.51 148.495 128.292L151.579 134.785L150.065 135.504L149.431 134.169L149.354 134.206C149.353 134.469 149.29 134.779 149.167 135.136C149.043 135.494 148.823 135.852 148.506 136.212C148.19 136.572 147.745 136.889 147.172 137.161ZM146.757 135.691C147.356 135.407 147.804 135.049 148.103 134.619C148.406 134.187 148.574 133.735 148.607 133.263C148.644 132.79 148.565 132.347 148.37 131.937L147.712 130.551C147.685 130.659 147.577 130.796 147.389 130.964C147.204 131.125 146.981 131.297 146.721 131.478C146.464 131.653 146.21 131.82 145.961 131.98C145.715 132.134 145.515 132.26 145.363 132.359C144.994 132.597 144.666 132.855 144.378 133.133C144.093 133.405 143.9 133.704 143.798 134.03C143.698 134.35 143.74 134.702 143.923 135.087C144.172 135.613 144.556 135.919 145.073 136.003C145.592 136.081 146.154 135.977 146.757 135.691ZM153.948 121.583L154.557 122.866L149.45 125.291L148.841 124.008L153.948 121.583ZM149.208 120.94L150.722 120.221L155.183 129.614C155.386 130.041 155.6 130.333 155.826 130.487C156.054 130.636 156.283 130.7 156.514 130.679C156.748 130.652 156.976 130.586 157.198 130.48C157.365 130.401 157.498 130.328 157.597 130.26C157.693 130.188 157.771 130.13 157.829 130.086L158.783 131.3C158.698 131.388 158.573 131.494 158.408 131.62C158.244 131.75 158.021 131.882 157.739 132.016C157.311 132.219 156.849 132.326 156.351 132.338C155.857 132.347 155.386 132.227 154.938 131.979C154.494 131.728 154.136 131.316 153.864 130.743L149.208 120.94ZM160.905 130.355L156.225 120.501L157.739 119.782L162.419 129.636L160.905 130.355ZM156.215 118.493C155.92 118.633 155.618 118.654 155.308 118.554C155.003 118.453 154.784 118.261 154.65 117.979C154.516 117.696 154.506 117.405 154.62 117.104C154.738 116.802 154.945 116.58 155.24 116.44C155.535 116.3 155.835 116.281 156.14 116.382C156.449 116.482 156.671 116.672 156.805 116.955C156.939 117.237 156.947 117.529 156.829 117.832C156.715 118.133 156.51 118.353 156.215 118.493ZM169.293 126.623C168.403 127.046 167.522 127.205 166.65 127.1C165.781 126.994 164.978 126.649 164.24 126.067C163.507 125.482 162.898 124.681 162.415 123.663C161.927 122.636 161.688 121.652 161.696 120.71C161.709 119.765 161.948 118.923 162.415 118.183C162.885 117.44 163.565 116.858 164.455 116.435C165.344 116.013 166.223 115.855 167.091 115.961C167.964 116.066 168.768 116.413 169.504 117.002C170.244 117.588 170.858 118.395 171.345 119.421C171.828 120.439 172.063 121.418 172.048 122.358C172.037 123.296 171.797 124.137 171.327 124.879C170.861 125.619 170.183 126.201 169.293 126.623ZM168.647 125.263C169.323 124.942 169.797 124.505 170.068 123.951C170.34 123.398 170.447 122.789 170.388 122.125C170.329 121.461 170.144 120.799 169.831 120.141C169.518 119.482 169.122 118.918 168.642 118.449C168.162 117.979 167.621 117.673 167.018 117.529C166.416 117.386 165.776 117.475 165.1 117.795C164.425 118.116 163.952 118.556 163.682 119.114C163.413 119.672 163.308 120.285 163.369 120.953C163.429 121.622 163.616 122.285 163.929 122.944C164.242 123.602 164.637 124.164 165.115 124.629C165.592 125.094 166.131 125.396 166.732 125.536C167.333 125.675 167.971 125.584 168.647 125.263ZM174.671 116.553L177.486 122.481L175.972 123.2L171.292 113.345L172.755 112.651L173.486 114.19L173.614 114.13C173.607 113.519 173.767 112.951 174.093 112.424C174.418 111.892 174.952 111.45 175.696 111.096C176.363 110.78 177.012 110.639 177.643 110.675C178.271 110.707 178.855 110.933 179.395 111.352C179.933 111.768 180.401 112.395 180.799 113.233L183.773 119.495L182.259 120.214L179.334 114.055C178.966 113.281 178.479 112.773 177.872 112.532C177.263 112.287 176.607 112.331 175.906 112.664C175.422 112.893 175.04 113.203 174.759 113.594C174.482 113.982 174.33 114.429 174.303 114.935C174.276 115.44 174.398 115.98 174.671 116.553Z" fill="#A583C0"/>
<rect x="1.33231" y="166.288" width="226" height="58" rx="29" transform="rotate(-25.4045 1.33231 166.288)" stroke="#A583C0" stroke-width="2"/>
<path d="M173.246 189.279L171.51 189.576C171.322 189.094 171.068 188.686 170.746 188.351C170.43 188.016 170.068 187.752 169.66 187.557C169.256 187.357 168.823 187.229 168.362 187.173C167.901 187.117 167.433 187.13 166.957 187.211C166.088 187.36 165.339 187.713 164.71 188.272C164.084 188.831 163.637 189.572 163.367 190.497C163.102 191.421 163.076 192.504 163.288 193.746C163.5 194.987 163.884 196 164.44 196.784C165.002 197.567 165.67 198.119 166.445 198.438C167.224 198.756 168.048 198.841 168.916 198.693C169.392 198.612 169.839 198.468 170.255 198.263C170.672 198.057 171.038 197.796 171.353 197.477C171.673 197.154 171.926 196.782 172.114 196.361C172.305 195.934 172.41 195.465 172.428 194.952L174.164 194.656C174.159 195.411 174.032 196.108 173.786 196.745C173.539 197.383 173.194 197.949 172.75 198.442C172.305 198.931 171.781 199.335 171.177 199.655C170.578 199.973 169.917 200.194 169.194 200.317C167.971 200.526 166.832 200.413 165.778 199.978C164.724 199.543 163.83 198.822 163.096 197.813C162.362 196.805 161.866 195.545 161.608 194.033C161.349 192.52 161.399 191.167 161.757 189.972C162.116 188.777 162.72 187.8 163.57 187.04C164.42 186.28 165.457 185.796 166.679 185.587C167.403 185.464 168.1 185.453 168.77 185.555C169.446 185.655 170.075 185.865 170.657 186.184C171.239 186.497 171.752 186.914 172.197 187.434C172.64 187.949 172.99 188.564 173.246 189.279ZM181.917 198.174C180.947 198.34 180.055 198.254 179.244 197.917C178.437 197.58 177.757 197.03 177.205 196.27C176.657 195.508 176.288 194.572 176.098 193.461C175.907 192.341 175.943 191.329 176.207 190.424C176.475 189.518 176.934 188.772 177.583 188.186C178.237 187.599 179.049 187.223 180.02 187.057C180.991 186.891 181.88 186.977 182.687 187.315C183.498 187.652 184.178 188.203 184.727 188.97C185.28 189.735 185.653 190.678 185.844 191.798C186.033 192.909 185.994 193.915 185.725 194.815C185.461 195.716 185.001 196.459 184.348 197.046C183.698 197.633 182.888 198.009 181.917 198.174ZM181.664 196.69C182.402 196.564 182.976 196.272 183.388 195.812C183.799 195.353 184.067 194.796 184.19 194.141C184.314 193.486 184.314 192.799 184.192 192.08C184.069 191.361 183.84 190.711 183.506 190.129C183.171 189.547 182.733 189.106 182.191 188.804C181.65 188.503 181.011 188.415 180.273 188.541C179.536 188.667 178.962 188.962 178.551 189.426C178.14 189.89 177.873 190.452 177.751 191.111C177.628 191.771 177.628 192.461 177.751 193.179C177.873 193.898 178.102 194.546 178.435 195.123C178.769 195.7 179.206 196.137 179.747 196.434C180.288 196.731 180.927 196.816 181.664 196.69ZM188.479 182.068L190.926 196.406L189.274 196.688L186.827 182.35L188.479 182.068ZM193.157 181.27L195.605 195.608L193.953 195.89L191.505 181.552L193.157 181.27ZM201.838 194.803C201.157 194.919 200.517 194.897 199.917 194.735C199.317 194.568 198.812 194.268 198.402 193.833C197.991 193.394 197.725 192.825 197.606 192.125C197.501 191.509 197.537 190.988 197.714 190.564C197.891 190.136 198.163 189.777 198.532 189.488C198.901 189.199 199.321 188.96 199.793 188.769C200.268 188.572 200.75 188.399 201.238 188.248C201.877 188.052 202.396 187.899 202.795 187.788C203.198 187.671 203.484 187.543 203.652 187.404C203.825 187.264 203.889 187.061 203.843 186.795L203.834 186.739C203.716 186.048 203.435 185.543 202.992 185.225C202.553 184.906 201.954 184.812 201.193 184.942C200.404 185.076 199.815 185.354 199.426 185.776C199.037 186.198 198.785 186.621 198.67 187.044L197.006 186.751C197.174 186.05 197.461 185.478 197.865 185.034C198.274 184.585 198.743 184.24 199.274 184.001C199.809 183.756 200.347 183.587 200.888 183.495C201.234 183.436 201.637 183.41 202.1 183.418C202.566 183.42 203.031 183.511 203.494 183.691C203.962 183.871 204.379 184.191 204.746 184.652C205.113 185.113 205.369 185.771 205.515 186.625L206.724 193.71L205.072 193.992L204.823 192.536L204.739 192.55C204.667 192.802 204.523 193.084 204.307 193.395C204.091 193.705 203.782 193.991 203.38 194.252C202.978 194.513 202.464 194.696 201.838 194.803ZM201.837 193.276C202.491 193.164 203.019 192.942 203.424 192.609C203.833 192.275 204.117 191.885 204.276 191.44C204.44 190.994 204.484 190.547 204.407 190.099L204.149 188.587C204.094 188.683 203.953 188.786 203.727 188.897C203.505 189.002 203.244 189.107 202.944 189.21C202.649 189.309 202.36 189.402 202.077 189.488C201.798 189.57 201.571 189.637 201.398 189.691C200.978 189.82 200.592 189.979 200.241 190.169C199.893 190.353 199.625 190.589 199.439 190.875C199.256 191.156 199.201 191.507 199.272 191.927C199.37 192.501 199.657 192.899 200.132 193.12C200.611 193.336 201.179 193.388 201.837 193.276ZM209.964 193.157L207.517 178.819L209.169 178.537L210.072 183.829L210.212 183.806C210.302 183.598 210.429 183.331 210.594 183.005C210.764 182.674 211.032 182.359 211.399 182.061C211.77 181.758 212.305 181.546 213.005 181.427C213.911 181.272 214.747 181.362 215.515 181.697C216.283 182.032 216.932 182.582 217.461 183.346C217.99 184.111 218.351 185.058 218.544 186.188C218.739 187.326 218.713 188.347 218.469 189.248C218.223 190.145 217.796 190.881 217.188 191.455C216.579 192.025 215.827 192.387 214.931 192.54C214.24 192.657 213.667 192.637 213.213 192.48C212.758 192.317 212.393 192.108 212.119 191.852C211.844 191.592 211.629 191.374 211.474 191.199L211.278 191.232L211.56 192.884L209.964 193.157ZM210.67 187.503C210.809 188.315 211.05 189.011 211.394 189.591C211.737 190.167 212.168 190.59 212.685 190.862C213.201 191.13 213.791 191.207 214.453 191.094C215.144 190.976 215.69 190.695 216.089 190.252C216.493 189.804 216.759 189.249 216.886 188.589C217.018 187.923 217.018 187.207 216.887 186.442C216.758 185.685 216.525 185.024 216.188 184.457C215.855 183.885 215.425 183.461 214.898 183.186C214.374 182.905 213.763 182.825 213.062 182.944C212.39 183.059 211.855 183.326 211.455 183.745C211.055 184.159 210.791 184.689 210.661 185.336C210.53 185.978 210.533 186.7 210.67 187.503ZM226.391 190.583C225.421 190.749 224.529 190.663 223.718 190.326C222.911 189.989 222.231 189.439 221.679 188.679C221.131 187.917 220.762 186.981 220.572 185.87C220.381 184.75 220.417 183.738 220.681 182.833C220.949 181.927 221.408 181.181 222.057 180.595C222.711 180.008 223.523 179.631 224.494 179.466C225.465 179.3 226.354 179.386 227.161 179.724C227.972 180.061 228.652 180.612 229.201 181.379C229.754 182.144 230.127 183.087 230.318 184.207C230.507 185.318 230.468 186.324 230.199 187.224C229.935 188.125 229.475 188.868 228.822 189.455C228.172 190.042 227.362 190.418 226.391 190.583ZM226.138 189.099C226.876 188.973 227.45 188.681 227.862 188.221C228.273 187.762 228.541 187.205 228.664 186.55C228.788 185.895 228.788 185.208 228.666 184.489C228.543 183.77 228.314 183.12 227.98 182.538C227.645 181.956 227.207 181.515 226.665 181.213C226.124 180.912 225.485 180.824 224.747 180.95C224.01 181.076 223.436 181.371 223.025 181.835C222.614 182.299 222.347 182.861 222.225 183.52C222.102 184.18 222.102 184.869 222.225 185.588C222.347 186.307 222.576 186.955 222.909 187.532C223.243 188.109 223.68 188.546 224.221 188.843C224.762 189.14 225.401 189.225 226.138 189.099ZM233.748 189.097L231.913 178.344L233.509 178.071L233.786 179.695L233.898 179.676C234.003 179.111 234.284 178.618 234.741 178.199C235.198 177.78 235.748 177.516 236.393 177.406C236.514 177.385 236.666 177.362 236.849 177.335C237.032 177.309 237.171 177.292 237.265 177.286L237.552 178.966C237.494 178.962 237.362 178.962 237.156 178.969C236.955 178.97 236.744 178.989 236.525 179.026C236.002 179.115 235.554 179.305 235.181 179.594C234.812 179.878 234.54 180.232 234.368 180.655C234.199 181.073 234.156 181.525 234.239 182.01L235.4 188.815L233.748 189.097ZM244.291 187.557C243.609 187.673 242.969 187.651 242.37 187.489C241.77 187.322 241.265 187.022 240.854 186.587C240.443 186.148 240.178 185.579 240.058 184.879C239.953 184.263 239.989 183.742 240.167 183.318C240.343 182.89 240.616 182.531 240.984 182.242C241.353 181.953 241.773 181.714 242.245 181.523C242.721 181.326 243.203 181.153 243.691 181.002C244.33 180.806 244.849 180.653 245.248 180.542C245.651 180.425 245.936 180.297 246.104 180.158C246.277 180.018 246.341 179.815 246.296 179.549L246.286 179.493C246.168 178.802 245.888 178.297 245.444 177.979C245.006 177.66 244.406 177.566 243.645 177.696C242.856 177.83 242.267 178.108 241.878 178.53C241.489 178.952 241.237 179.375 241.122 179.798L239.458 179.505C239.627 178.804 239.913 178.232 240.318 177.788C240.726 177.339 241.196 176.994 241.727 176.755C242.261 176.51 242.799 176.341 243.341 176.249C243.686 176.19 244.09 176.164 244.552 176.172C245.019 176.174 245.483 176.265 245.946 176.445C246.414 176.625 246.831 176.945 247.198 177.406C247.565 177.867 247.821 178.525 247.967 179.379L249.177 186.464L247.524 186.746L247.276 185.289L247.192 185.304C247.12 185.556 246.976 185.838 246.76 186.149C246.544 186.459 246.235 186.745 245.832 187.006C245.43 187.266 244.916 187.45 244.291 187.557ZM244.29 186.03C244.943 185.918 245.472 185.696 245.876 185.363C246.285 185.029 246.569 184.639 246.729 184.194C246.893 183.748 246.936 183.301 246.86 182.853L246.602 181.341C246.546 181.437 246.405 181.54 246.179 181.651C245.957 181.756 245.696 181.861 245.397 181.964C245.102 182.063 244.812 182.156 244.529 182.242C244.25 182.324 244.024 182.391 243.851 182.445C243.431 182.574 243.045 182.733 242.693 182.923C242.345 183.107 242.078 183.343 241.891 183.629C241.709 183.91 241.653 184.261 241.725 184.681C241.823 185.255 242.109 185.653 242.584 185.874C243.063 186.09 243.631 186.142 244.29 186.03ZM255.033 174.397L255.272 175.797L249.7 176.749L249.461 175.348L255.033 174.397ZM250.645 172.495L252.297 172.213L254.047 182.462C254.126 182.929 254.254 183.267 254.429 183.478C254.608 183.683 254.812 183.806 255.04 183.849C255.272 183.886 255.51 183.884 255.752 183.843C255.934 183.812 256.082 183.777 256.196 183.738C256.308 183.695 256.398 183.66 256.466 183.634L257.055 185.061C256.951 185.122 256.801 185.191 256.608 185.267C256.415 185.348 256.165 185.415 255.857 185.468C255.39 185.547 254.915 185.525 254.433 185.401C253.955 185.276 253.535 185.033 253.17 184.672C252.811 184.311 252.578 183.818 252.471 183.192L250.645 172.495ZM259.354 184.727L257.519 173.973L259.171 173.691L261.007 184.444L259.354 184.727ZM258.053 172.037C257.731 172.092 257.435 172.03 257.164 171.85C256.898 171.67 256.738 171.426 256.686 171.118C256.633 170.81 256.702 170.527 256.894 170.268C257.09 170.009 257.349 169.852 257.671 169.797C257.993 169.742 258.287 169.805 258.553 169.985C258.824 170.165 258.985 170.408 259.038 170.716C259.091 171.024 259.019 171.308 258.823 171.567C258.632 171.826 258.375 171.982 258.053 172.037ZM268.44 183.406C267.469 183.572 266.578 183.486 265.766 183.149C264.959 182.812 264.279 182.262 263.727 181.502C263.179 180.74 262.81 179.804 262.62 178.693C262.429 177.573 262.465 176.561 262.729 175.656C262.997 174.75 263.456 174.004 264.105 173.418C264.759 172.831 265.571 172.454 266.542 172.289C267.513 172.123 268.402 172.209 269.209 172.547C270.02 172.884 270.7 173.435 271.249 174.202C271.802 174.967 272.175 175.91 272.366 177.03C272.556 178.141 272.516 179.147 272.247 180.047C271.983 180.947 271.524 181.691 270.87 182.278C270.22 182.865 269.41 183.241 268.44 183.406ZM268.186 181.922C268.924 181.796 269.498 181.504 269.91 181.044C270.321 180.585 270.589 180.028 270.712 179.373C270.836 178.718 270.836 178.031 270.714 177.312C270.591 176.593 270.362 175.943 270.028 175.361C269.693 174.779 269.255 174.338 268.714 174.036C268.172 173.735 267.533 173.647 266.795 173.773C266.058 173.899 265.484 174.194 265.073 174.658C264.662 175.122 264.396 175.684 264.273 176.343C264.15 177.003 264.15 177.692 264.273 178.411C264.395 179.13 264.624 179.778 264.958 180.355C265.291 180.932 265.729 181.369 266.269 181.666C266.81 181.963 267.449 182.048 268.186 181.922ZM276.344 175.169L277.448 181.638L275.796 181.92L273.961 171.167L275.557 170.894L275.844 172.574L275.984 172.55C276.143 171.961 276.45 171.457 276.907 171.038C277.363 170.615 277.997 170.333 278.81 170.195C279.538 170.071 280.2 170.111 280.797 170.317C281.394 170.517 281.895 170.893 282.301 171.443C282.706 171.989 282.987 172.719 283.143 173.634L284.309 180.467L282.657 180.749L281.51 174.028C281.366 173.183 281.034 172.563 280.515 172.166C279.995 171.765 279.352 171.63 278.587 171.76C278.059 171.85 277.608 172.045 277.231 172.345C276.859 172.644 276.592 173.033 276.429 173.512C276.266 173.991 276.238 174.544 276.344 175.169Z" fill="#A583C0"/>
<rect x="117.154" y="172.477" width="204" height="58" rx="29" transform="rotate(-9.68622 117.154 172.477)" stroke="#A583C0" stroke-width="2"/>
<path d="M407.687 103.786L398.734 92.322L405.653 86.9187L406.614 88.1501L401.084 92.4693L404.109 96.3427L409.281 92.3033L410.243 93.5348L405.071 97.5741L408.114 101.47L413.733 97.0809L414.695 98.3123L407.687 103.786ZM416.929 96.568L410.214 87.9704L411.49 86.9736L412.539 88.317L412.651 88.2296C412.472 87.6307 412.483 87.0485 412.684 86.4829C412.882 85.9136 413.261 85.4103 413.821 84.9732C414.388 84.5302 414.96 84.2902 415.538 84.2534C416.117 84.2098 416.692 84.3345 417.263 84.6274L417.353 84.5574C417.226 83.9414 417.281 83.3309 417.518 82.7258C417.751 82.1169 418.175 81.572 418.791 81.0912C419.56 80.4908 420.377 80.2404 421.241 80.34C422.103 80.4359 422.929 80.9894 423.719 82.0007L428.213 87.7549L426.892 88.7866L422.398 83.0324C421.903 82.398 421.375 82.0802 420.815 82.0788C420.255 82.0774 419.74 82.2603 419.27 82.6276C418.666 83.0997 418.34 83.6483 418.294 84.2734C418.244 84.8947 418.437 85.4834 418.871 86.0394L423.243 91.6369L421.899 92.686L417.3 86.7975C416.918 86.3087 416.452 86.0389 415.902 85.9881C415.349 85.9335 414.822 86.1015 414.322 86.4921C413.979 86.7602 413.729 87.1022 413.574 87.5182C413.422 87.9313 413.381 88.3716 413.452 88.8391C413.523 89.2999 413.724 89.7411 414.053 90.1628L418.25 95.5363L416.929 96.568ZM433.146 89.0926L423.914 77.2709L425.19 76.2741L426.256 77.6399L426.413 77.5175C426.394 77.2925 426.379 76.9972 426.37 76.6318C426.362 76.2597 426.449 75.8555 426.631 75.4191C426.813 74.976 427.185 74.5359 427.744 74.0988C428.468 73.5334 429.248 73.216 430.083 73.1466C430.918 73.0773 431.749 73.2538 432.578 73.6761C433.406 74.0984 434.173 74.7611 434.879 75.6642C435.59 76.5747 436.051 77.4849 436.263 78.3947C436.472 79.3009 436.445 80.151 436.182 80.9451C435.916 81.7355 435.425 82.4105 434.709 82.97C434.157 83.4014 433.643 83.6553 433.168 83.7318C432.69 83.8046 432.27 83.7934 431.907 83.6982C431.542 83.5993 431.249 83.5093 431.03 83.4284L430.918 83.5158L434.467 88.0609L433.146 89.0926ZM428.57 80.5555C429.077 81.2048 429.619 81.7033 430.197 82.0509C430.772 82.3949 431.352 82.564 431.936 82.5582C432.517 82.5488 433.073 82.3371 433.603 81.9233C434.155 81.4919 434.502 80.9865 434.645 80.4069C434.787 79.8206 434.758 79.2065 434.557 78.5645C434.357 77.9158 434.018 77.2855 433.54 76.6735C433.068 76.069 432.549 75.597 431.984 75.2576C431.419 74.9116 430.839 74.7425 430.245 74.7503C429.651 74.7515 429.074 74.9707 428.514 75.4078C427.977 75.8275 427.632 76.3164 427.479 76.8744C427.323 77.4287 427.341 78.0212 427.534 78.6521C427.723 79.2792 428.068 79.9136 428.57 80.5555ZM442.921 76.5924C442.376 77.0179 441.802 77.3014 441.197 77.443C440.59 77.5808 440.003 77.5559 439.435 77.368C438.865 77.1765 438.362 76.8009 437.924 76.2411C437.54 75.7485 437.325 75.2735 437.28 74.8159C437.232 74.3547 437.302 73.9096 437.49 73.4806C437.677 73.0517 437.934 72.6413 438.258 72.2494C438.584 71.851 438.926 71.4697 439.285 71.1056C439.755 70.6304 440.139 70.2492 440.437 69.9621C440.736 69.6683 440.927 69.4202 441.009 69.2178C441.095 69.0125 441.055 68.8035 440.889 68.5908L440.854 68.546C440.423 67.9937 439.937 67.6826 439.395 67.6127C438.858 67.5399 438.285 67.741 437.677 68.216C437.046 68.7085 436.659 69.2328 436.517 69.7887C436.374 70.3446 436.353 70.8361 436.452 71.2633L434.848 71.7947C434.664 71.0974 434.645 70.4575 434.791 69.875C434.938 69.2859 435.188 68.76 435.541 68.2975C435.896 67.8284 436.29 67.4248 436.723 67.0867C436.999 66.8711 437.342 66.6569 437.753 66.4443C438.164 66.225 438.617 66.085 439.11 66.0242C439.607 65.9605 440.126 66.0446 440.668 66.2765C441.209 66.5084 441.747 66.9658 442.28 67.6487L446.704 73.3133L445.383 74.345L444.474 73.1807L444.407 73.2331C444.463 73.4897 444.47 73.8059 444.427 74.1818C444.384 74.5577 444.247 74.9558 444.017 75.3761C443.786 75.7964 443.421 76.2018 442.921 76.5924ZM442.196 75.2483C442.718 74.8403 443.078 74.3938 443.276 73.9088C443.478 73.4208 443.543 72.9432 443.473 72.4757C443.406 72.0053 443.232 71.591 442.953 71.2328L442.008 70.0237C442.005 70.1346 441.93 70.2924 441.783 70.497C441.637 70.6949 441.457 70.9106 441.243 71.144C441.03 71.3708 440.819 71.5894 440.611 71.8C440.404 72.0039 440.236 72.1705 440.109 72.2999C439.801 72.6128 439.537 72.9362 439.317 73.2701C439.098 73.5974 438.974 73.9313 438.946 74.2719C438.918 74.6058 439.036 74.9407 439.298 75.2766C439.656 75.7356 440.097 75.95 440.62 75.9199C441.144 75.8831 441.67 75.6593 442.196 75.2483ZM446.14 59.9123L447.014 61.0318L442.558 64.5116L441.684 63.3921L446.14 59.9123ZM441.374 60.318L442.695 59.2863L449.095 67.481C449.386 67.8541 449.659 68.0917 449.913 68.1938C450.168 68.2892 450.406 68.3016 450.627 68.231C450.849 68.1537 451.057 68.0393 451.251 67.8878C451.397 67.7741 451.51 67.6734 451.592 67.5856C451.67 67.4941 451.733 67.4209 451.781 67.3659L452.976 68.3428C452.913 68.4463 452.814 68.5775 452.68 68.7364C452.548 68.8991 452.36 69.0765 452.113 69.2689C451.74 69.5603 451.312 69.7657 450.828 69.885C450.348 70.0015 449.863 69.9873 449.371 69.8425C448.883 69.6948 448.444 69.3709 448.054 68.8709L441.374 60.318ZM452.308 60.61L456.347 65.7821L455.026 66.8138L446.073 55.3502L447.394 54.3185L450.682 58.5278L450.794 58.4404C450.648 57.8389 450.675 57.2502 450.874 56.6742C451.074 56.0916 451.511 55.5366 452.187 55.0091C452.773 54.5515 453.378 54.2683 454.002 54.1595C454.623 54.047 455.242 54.1367 455.861 54.4286C456.48 54.7139 457.078 55.226 457.656 55.9648L461.922 61.4279L460.601 62.4596L456.404 57.0861C455.871 56.4032 455.281 56.0136 454.636 55.9173C453.99 55.8144 453.356 56.0063 452.733 56.493C452.3 56.8311 451.984 57.2256 451.783 57.6765C451.586 58.1246 451.526 58.6013 451.602 59.1065C451.682 59.6088 451.917 60.11 452.308 60.61ZM467.4 62.3406C467.176 62.5154 466.962 62.6527 466.757 62.7524C466.556 62.8558 466.408 62.9169 466.315 62.9358L465.741 61.5092C466.126 61.3407 466.433 61.149 466.662 60.9343C466.891 60.7195 467.023 60.439 467.059 60.0926C467.102 59.747 467.032 59.2932 466.852 58.7313L466.574 57.8672L456.645 51.7079L458.077 50.5887L465.802 55.5864L465.891 55.5165L462.914 46.8117L464.347 45.6925L468.391 58.3943C468.574 58.9666 468.657 59.493 468.642 59.9735C468.63 60.4577 468.519 60.8961 468.308 61.2885C468.102 61.6781 467.799 62.0287 467.4 62.3406Z" fill="#A583C0"/>
<rect x="353.404" y="100.503" width="161" height="58" rx="29" transform="rotate(-37.9899 353.404 100.503)" stroke="#A583C0" stroke-width="2"/>
<path d="M249.644 75.6757L248.065 61.2161L249.816 61.025L251.225 73.9312L257.947 73.1974L258.116 74.7507L249.644 75.6757ZM265.173 74.2089C264.128 74.323 263.202 74.1907 262.394 73.8122C261.59 73.4284 260.937 72.8424 260.437 72.0539C259.941 71.2603 259.632 70.3081 259.511 69.1973C259.389 68.0864 259.485 67.0853 259.797 66.1939C260.114 65.2972 260.611 64.5714 261.288 64.0163C261.97 63.4561 262.801 63.1225 263.78 63.0156C264.344 62.9539 264.913 62.9872 265.484 63.1153C266.055 63.2435 266.59 63.4947 267.088 63.869C267.585 64.2386 268.006 64.7547 268.35 65.4173C268.694 66.0799 268.921 66.9172 269.031 67.9292L269.109 68.6352L260.749 69.5479L260.592 68.1076L267.257 67.3799C267.19 66.768 267.008 66.2354 266.711 65.782C266.418 65.3281 266.033 64.9867 265.556 64.7578C265.083 64.5284 264.546 64.4466 263.943 64.5124C263.279 64.5848 262.723 64.8123 262.274 65.1947C261.83 65.5719 261.506 66.0358 261.305 66.5866C261.103 67.1373 261.034 67.7115 261.1 68.3093L261.205 69.2695C261.294 70.0885 261.511 70.7674 261.856 71.3061C262.204 71.8395 262.649 72.2268 263.19 72.4678C263.73 72.7042 264.337 72.7856 265.01 72.7121C265.447 72.6643 265.836 72.56 266.176 72.399C266.52 72.2329 266.807 72.011 267.039 71.7332C267.27 71.4508 267.436 71.1136 267.536 70.7216L269.195 70.9977C269.085 71.5622 268.853 72.0734 268.498 72.5313C268.143 72.9845 267.683 73.3585 267.12 73.6534C266.556 73.9436 265.907 74.1287 265.173 74.2089ZM275.393 73.1218C274.705 73.1968 274.068 73.1354 273.479 72.9377C272.89 72.7353 272.404 72.4049 272.021 71.9467C271.637 71.4837 271.406 70.8992 271.329 70.1932C271.261 69.5719 271.329 69.0549 271.531 68.6422C271.733 68.2248 272.027 67.8832 272.412 67.6172C272.798 67.3513 273.232 67.1372 273.714 66.975C274.201 66.8076 274.692 66.6634 275.189 66.5425C275.838 66.3859 276.366 66.264 276.771 66.1769C277.18 66.0846 277.472 65.9741 277.649 65.8453C277.83 65.7159 277.906 65.5171 277.877 65.2488L277.87 65.1924C277.794 64.4957 277.545 63.9753 277.121 63.6309C276.703 63.2861 276.11 63.1555 275.342 63.2393C274.547 63.3261 273.942 63.5684 273.528 63.966C273.115 64.3636 272.837 64.7702 272.697 65.1856L271.054 64.7934C271.264 64.1036 271.585 63.5495 272.016 63.131C272.45 62.7072 272.94 62.3918 273.484 62.1847C274.032 61.9725 274.58 61.8365 275.126 61.7769C275.474 61.7389 275.879 61.7376 276.34 61.7729C276.805 61.8031 277.263 61.9222 277.715 62.1301C278.171 62.3375 278.568 62.6823 278.906 63.1645C279.245 63.6467 279.461 64.3185 279.555 65.1799L280.335 72.3249L278.669 72.5068L278.509 71.0383L278.424 71.0475C278.337 71.2952 278.176 71.5676 277.942 71.8647C277.707 72.1617 277.382 72.4283 276.964 72.6644C276.547 72.9004 276.023 73.0529 275.393 73.1218ZM275.483 71.5972C276.142 71.5253 276.684 71.3352 277.107 71.027C277.535 70.7183 277.843 70.3466 278.028 69.9119C278.219 69.4767 278.29 69.0332 278.24 68.5813L278.074 67.0563C278.013 67.1487 277.866 67.2433 277.633 67.3401C277.405 67.4317 277.139 67.5204 276.834 67.6061C276.533 67.6865 276.239 67.7615 275.951 67.831C275.667 67.8953 275.437 67.949 275.261 67.9921C274.834 68.0958 274.44 68.2318 274.077 68.4C273.718 68.563 273.437 68.7818 273.234 69.0564C273.035 69.3259 272.958 69.6724 273.005 70.096C273.068 70.675 273.33 71.0893 273.79 71.3391C274.255 71.5836 274.82 71.6697 275.483 71.5972ZM287.496 71.7718C286.592 71.8704 285.77 71.7292 285.028 71.3482C284.286 70.9625 283.673 70.372 283.191 69.5769C282.709 68.777 282.405 67.8028 282.279 66.6543C282.155 65.5152 282.242 64.5055 282.541 63.625C282.841 62.7445 283.314 62.038 283.96 61.5054C284.607 60.9727 285.387 60.6566 286.3 60.5569C287.006 60.4798 287.577 60.5366 288.012 60.7272C288.452 60.9126 288.796 61.1418 289.045 61.4147C289.298 61.6824 289.496 61.9036 289.639 62.0786L289.78 62.0631L289.197 56.7255L290.863 56.5436L292.442 71.0032L290.832 71.1789L290.65 69.5127L290.453 69.5343C290.352 69.7453 290.205 70.0138 290.012 70.3397C289.818 70.6609 289.525 70.962 289.132 71.2431C288.738 71.5195 288.193 71.6957 287.496 71.7718ZM287.559 70.2503C288.227 70.1773 288.773 69.9415 289.196 69.5428C289.619 69.1395 289.916 68.614 290.088 67.9665C290.26 67.3143 290.301 66.5787 290.212 65.7597C290.124 64.9501 289.929 64.2546 289.627 63.6731C289.325 63.0869 288.925 62.6495 288.426 62.361C287.927 62.0677 287.339 61.9581 286.661 62.0321C285.955 62.1092 285.387 62.3546 284.956 62.7684C284.529 63.177 284.231 63.7025 284.063 64.3448C283.899 64.9819 283.859 65.6816 283.942 66.4442C284.027 67.2161 284.221 67.9046 284.525 68.5096C284.833 69.1094 285.241 69.5698 285.748 69.8908C286.258 70.2065 286.862 70.3264 287.559 70.2503ZM300.296 70.3743C299.252 70.4883 298.325 70.3561 297.517 69.9776C296.713 69.5938 296.061 69.0077 295.56 68.2193C295.064 67.4257 294.755 66.4735 294.634 65.3626C294.513 64.2518 294.608 63.2507 294.92 62.3593C295.237 61.4626 295.734 60.7367 296.412 60.1817C297.093 59.6214 297.924 59.2879 298.903 59.181C299.468 59.1193 300.036 59.1525 300.607 59.2807C301.178 59.4089 301.713 59.6601 302.211 60.0344C302.709 60.4039 303.129 60.92 303.473 61.5827C303.817 62.2453 304.044 63.0826 304.155 64.0946L304.232 64.8006L295.872 65.7132L295.715 64.2729L302.38 63.5453C302.313 62.9334 302.131 62.4007 301.834 61.9474C301.542 61.4935 301.157 61.1521 300.679 60.9232C300.206 60.6938 299.669 60.612 299.066 60.6778C298.403 60.7502 297.846 60.9777 297.398 61.3601C296.953 61.7373 296.63 62.2012 296.428 62.7519C296.226 63.3027 296.158 63.8769 296.223 64.4747L296.328 65.4349C296.417 66.2539 296.634 66.9327 296.979 67.4714C297.328 68.0049 297.772 68.3922 298.313 68.6332C298.853 68.8695 299.46 68.951 300.133 68.8775C300.571 68.8297 300.959 68.7253 301.299 68.5644C301.643 68.3983 301.931 68.1763 302.162 67.8986C302.394 67.6162 302.559 67.279 302.659 66.887L304.318 67.1631C304.208 67.7276 303.976 68.2388 303.621 68.6967C303.266 69.1499 302.807 69.5239 302.243 69.8188C301.68 70.1089 301.031 70.2941 300.296 70.3743ZM307.297 69.3814L306.113 58.5367L307.723 58.361L307.901 59.999L308.014 59.9866C308.154 59.4285 308.464 58.954 308.945 58.5633C309.426 58.1726 309.992 57.9418 310.641 57.8709C310.764 57.8575 310.917 57.8431 311.101 57.8278C311.285 57.8125 311.425 57.8044 311.52 57.8035L311.705 59.498C311.647 59.49 311.515 59.483 311.31 59.4768C311.108 59.4655 310.897 59.4719 310.676 59.496C310.149 59.5536 309.69 59.7156 309.3 59.982C308.914 60.2433 308.622 60.5799 308.424 60.9921C308.231 61.3991 308.16 61.8473 308.214 62.3368L308.963 69.1995L307.297 69.3814ZM321.457 59.3192L320.007 59.9062C319.885 59.667 319.72 59.4398 319.511 59.2245C319.306 59.004 319.039 58.833 318.712 58.7116C318.384 58.5902 317.978 58.5559 317.493 58.6089C316.829 58.6813 316.293 58.8947 315.884 59.2489C315.479 59.598 315.302 60.0055 315.353 60.4714C315.398 60.8856 315.584 61.1963 315.912 61.4035C316.239 61.6107 316.732 61.7593 317.389 61.8495L319.042 62.0691C320.038 62.1986 320.8 62.4798 321.328 62.9127C321.856 63.3409 322.161 63.9339 322.244 64.6917C322.312 65.313 322.193 65.8879 321.889 66.4165C321.589 66.9446 321.137 67.3845 320.533 67.7363C319.928 68.0881 319.205 68.3099 318.362 68.4019C317.256 68.5227 316.314 68.3826 315.537 67.9816C314.76 67.5807 314.224 66.9294 313.931 66.028L315.469 65.4599C315.683 66.0271 316.016 66.4338 316.467 66.6799C316.922 66.9254 317.491 67.011 318.173 66.9365C318.95 66.8517 319.549 66.6196 319.969 66.2403C320.394 65.8557 320.581 65.4305 320.53 64.9645C320.489 64.5879 320.323 64.287 320.032 64.0616C319.74 63.8315 319.314 63.6827 318.754 63.6152L316.9 63.3889C315.881 63.262 315.112 62.9769 314.592 62.5335C314.076 62.085 313.778 61.4865 313.696 60.7381C313.629 60.1262 313.742 59.5661 314.034 59.0579C314.331 58.5492 314.764 58.1281 315.332 57.7945C315.905 57.4605 316.573 57.2518 317.336 57.1686C318.409 57.0514 319.277 57.1948 319.94 57.5986C320.608 58.002 321.114 58.5755 321.457 59.3192ZM326.036 60.734L326.748 67.2578L325.082 67.4397L323.503 52.9801L325.169 52.7982L325.749 58.1076L325.89 58.0922C326.083 57.5043 326.416 57.0179 326.888 56.6329C327.365 56.2427 328.029 56.0011 328.881 55.9081C329.62 55.8274 330.283 55.905 330.871 56.1409C331.459 56.3721 331.938 56.7746 332.311 57.3484C332.687 57.9169 332.926 58.6672 333.028 59.5992L333.78 66.49L332.114 66.6719L331.374 59.894C331.28 59.0327 330.984 58.3911 330.485 57.9692C329.991 57.5421 329.35 57.3715 328.564 57.4573C328.018 57.5169 327.541 57.6856 327.134 57.9636C326.73 58.241 326.428 58.6145 326.227 59.0842C326.031 59.5534 325.967 60.1033 326.036 60.734ZM336.828 66.1572L335.644 55.3126L337.311 55.1307L338.495 65.9753L336.828 66.1572ZM336.294 53.4126C335.97 53.4481 335.677 53.3681 335.418 53.1725C335.163 52.9765 335.019 52.7231 334.985 52.4125C334.951 52.1018 335.037 51.8233 335.244 51.5769C335.455 51.33 335.723 51.1888 336.048 51.1533C336.372 51.1179 336.662 51.1982 336.917 51.3942C337.176 51.5897 337.323 51.8428 337.357 52.1535C337.391 52.4641 337.302 52.7429 337.091 52.9898C336.885 53.2362 336.619 53.3772 336.294 53.4126ZM341.99 69.7089L340.362 54.7975L341.972 54.6217L342.16 56.3444L342.358 56.3229C342.46 56.1212 342.603 55.8627 342.788 55.5472C342.977 55.2265 343.263 54.9285 343.647 54.6532C344.036 54.3726 344.583 54.1938 345.289 54.1167C346.202 54.017 347.032 54.1574 347.779 54.5379C348.525 54.9184 349.139 55.5063 349.622 56.3015C350.104 57.0966 350.407 58.0637 350.531 59.2028C350.657 60.3513 350.57 61.3681 350.271 62.2533C349.972 63.1338 349.502 63.8424 348.86 64.3792C348.218 64.9113 347.445 65.2267 346.542 65.3254C345.845 65.4015 345.275 65.347 344.831 65.1621C344.386 64.9725 344.034 64.7418 343.776 64.4699C343.517 64.1933 343.316 63.9629 343.172 63.7786L343.031 63.794L343.657 69.527L341.99 69.7089ZM342.592 60.041C342.682 60.86 342.881 61.5694 343.189 62.1692C343.497 62.7643 343.901 63.2132 344.401 63.5158C344.9 63.8138 345.484 63.9262 346.152 63.8533C346.849 63.7772 347.41 63.5302 347.836 63.1122C348.266 62.6889 348.565 62.1515 348.732 61.4998C348.903 60.8428 348.946 60.1284 348.862 59.3565C348.779 58.594 348.586 57.9196 348.284 57.3334C347.986 56.742 347.582 56.2931 347.072 55.9868C346.567 55.6752 345.961 55.558 345.255 55.6351C344.577 55.7091 344.026 55.943 343.603 56.337C343.178 56.7263 342.882 57.2397 342.713 57.8773C342.544 58.5102 342.504 59.2314 342.592 60.041Z" fill="#A583C0"/>
<rect x="205.216" y="44.3123" width="183" height="58" rx="29" transform="rotate(-6.23066 205.216 44.3123)" stroke="#A583C0" stroke-width="2"/>
</svg>
