<svg width="40" height="30" viewBox="0 0 40 30" fill="none" xmlns="http://www.w3.org/2000/svg">
<g id="Social media Icon">
<path id="Vector" d="M40 4.09946V27.2811C40 28.7878 38.78 30.0078 37.2733 30.0078H30.9083V14.5545L20 22.7378L9.09167 14.5545V30.0095H2.72667C2.36846 30.0095 2.01376 29.9389 1.68283 29.8017C1.35191 29.6646 1.05125 29.4636 0.798033 29.2103C0.544817 28.9569 0.344007 28.6561 0.207077 28.3251C0.0701473 27.9941 -0.000218446 27.6393 5.09419e-07 27.2811V4.09946C5.09419e-07 0.727795 3.84833 -1.1972 6.545 0.826129L9.09167 2.7378L20 10.9178L30.9083 2.73446L33.455 0.826129C36.15 -1.19554 40 0.727795 40 4.09946Z" fill="#A583C0"/>
</g>
</svg>
