<svg width="40" height="25" viewBox="0 0 40 25" fill="none" xmlns="http://www.w3.org/2000/svg">
<g id="Social media Icon">
<path id="Vector" d="M36.6663 3.33354H24.9997V0.000244141H36.6663V3.33354ZM39.5429 20C38.8062 22.1617 36.1613 25 31.0413 25C25.9181 25 21.7681 22.1183 21.7681 15.5417C21.7681 9.02515 25.6431 5.67518 30.878 5.67518C36.0146 5.67518 39.1512 8.64515 39.8362 13.0518C39.9662 13.8951 40.0179 15.0317 39.9946 16.6184H26.6164C26.833 21.97 32.4213 22.1383 34.263 20H39.5429ZM26.733 13.3334H35.008C34.833 10.7551 33.1146 9.63514 30.8797 9.63514C28.4364 9.63514 27.0847 10.9151 26.733 13.3334ZM10.7766 24.98H0V0.0352436H11.5882C20.7148 0.170242 20.8881 9.10848 16.1215 11.5451C21.8898 13.6451 22.0831 24.98 10.7766 24.98ZM4.99995 10.0001H10.9732C15.1532 10.0001 15.8165 5.00019 10.4532 5.00019H4.99995V10.0001ZM10.6516 15.0001H4.99995V20.0267H10.5682C15.6598 20.0267 15.3482 15.0001 10.6516 15.0001Z" fill="#A583C0"/>
</g>
</svg>
